<?xml version="1.0" encoding="utf-8"?>
<!-- Generator: Adobe Illustrator 21.1.0, SVG Export Plug-In . SVG Version: 6.00 Build 0)  -->
<svg version="1.1" id="Layer_1" xmlns="http://www.w3.org/2000/svg" xmlns:xlink="http://www.w3.org/1999/xlink" x="0px" y="0px"
	 viewBox="0 0 524 259.5" style="enable-background:new 0 0 524 259.5;" xml:space="preserve">
<style type="text/css">
	.st0{fill:#F60300;}
</style>
<title>all in logo</title>
<rect x="323.2" y="87.3" class="st0" width="39.1" height="168.2"/>
<path class="st0" d="M104.7,139.8c0,0,0,14.5-26.6,17.5c-2.7,0.3-5.5,0.7-8.5,1c-28.3,3-66.2,7.2-66.2,51.5
	c0,0.5,0.1,48.6,60.4,48.6c21.6,0,37.7-7.9,44.9-15v12.1h34.1V145c0.3-17.1-4.3-30.6-13.7-40.3c-10.7-10.8-27.1-16.3-49-16.3
	c-24.8,0-43.1,5.9-54.5,17.5c-13.6,13.9-13.3,31.8-13.1,37.7v1.6h38.7l-0.2-1.9c-0.2-5.2,1.6-10.2,4.9-14.2
	c4.5-5.2,12.1-7.8,22.5-7.8c11.4,0,19.2,2.7,23.4,7.5C105.6,133.3,104.7,139.8,104.7,139.8 M106.2,181.1v5.4
	c0.1,11.5-3.5,21.2-10.5,28.2c-7.2,7.2-17.7,11-28.7,11.3c-11.5,0.3-23-5.5-24.1-15.1c-1.8-16.3,11.9-19.7,32.4-22
	C86.1,187.7,97.1,185.8,106.2,181.1"/>
<rect x="168.3" y="1.1" class="st0" width="39.1" height="254.4"/>
<rect x="231.6" y="1.1" class="st0" width="39.1" height="254.4"/>
<rect x="323.2" y="1.1" class="st0" width="39.1" height="39.7"/>
<path class="st0" d="M518.1,126.6c-1.3-7.7-4.2-15-8.5-21.5c-4.2-6.4-10-11.5-16.9-14.9c-7.7-3.9-17.9-6.1-27.7-6.1
	c-9.4,0-28.2,2.9-41.4,13.8V86.8h-37v168.7h39.1v-96.7c0-8.7,2.8-17.7,7.4-23.9c6.3-8.6,14-13.2,24.8-13.2c8.1,0,14,2.4,18.3,9.2
	c3.8,5.9,5.2,15.8,5.2,28.2v96.4h39.1V153.9C520.6,144.7,519.8,135.6,518.1,126.6"/>
</svg>
