<?xml version="1.0" encoding="utf-8"?>
<!-- Generator: Adobe Illustrator 21.1.0, SVG Export Plug-In . SVG Version: 6.00 Build 0)  -->
<svg version="1.1" id="Layer_1" xmlns="http://www.w3.org/2000/svg" xmlns:xlink="http://www.w3.org/1999/xlink" x="0px" y="0px"
	 viewBox="0 0 214 31" style="enable-background:new 0 0 214 31;" xml:space="preserve">
<style type="text/css">
	.st0{fill:#FFFFFF;}
</style>
<title>Arigato Logo</title>
<g>
	<path class="st0" d="M14,3.3l6.4,24.3h-5.1l-1.1-5.1H7.7l-1.1,5.1H1.5L7.9,3.3H14z M13.3,18.5L11,7.6h-0.1L8.6,18.5L13.3,18.5z"/>
	<path class="st0" d="M27.4,3.3l3.1,7.9l3.1-7.9H39l-5.7,12l6.1,12.3h-5.5l-3.6-8.2l-3.5,8.2h-5.4l6.1-12.3l-5.6-12L27.4,3.3z"/>
	<path class="st0" d="M54.9,7.3h-8.7v5.7h8.2v4h-8.2v6.5h9v4H41.3V3.3h13.6L54.9,7.3z"/>
	<path class="st0" d="M57.9,3.3h4.9v20.3h8.7v4H57.9L57.9,3.3z"/>
	<path class="st0" d="M109.1,3.3l6.4,24.3h-5.1l-1.1-5.1h-6.5l-1.1,5.1h-5.1L103,3.3H109.1z M108.4,18.5l-2.4-10.9H106l-2.4,10.9
		H108.4z"/>
	<path class="st0" d="M126.5,3.3c1.7-0.1,3.4,0.4,4.8,1.5c1.2,1.3,1.8,3,1.7,4.7c0.1,1.4-0.3,2.8-1,4c-0.7,1.1-1.8,1.8-3.1,2v0.1
		c1,0.1,2,0.5,2.7,1.2c0.7,0.9,1,1.9,1.1,3c0,0.5,0.1,1,0.1,1.5s0,1.1,0.1,1.8c0,1.3,0.1,2.3,0.2,3c0.1,0.6,0.4,1,0.9,1.3v0.2h-5.3
		c-0.3-0.3-0.4-0.8-0.5-1.2c-0.1-0.5-0.1-0.9-0.1-1.4l-0.2-4.6c0-0.8-0.3-1.6-0.7-2.2c-0.6-0.6-1.4-0.9-2.2-0.8h-2.6v10.3h-4.9V3.3
		H126.5z M124.4,14c1,0.1,2-0.2,2.7-0.8c0.7-0.7,1.1-1.8,1-2.8c0-2.2-1.1-3.4-3.4-3.4h-2.3v7L124.4,14z"/>
	<path class="st0" d="M136.8,3.3h4.9v24.3h-4.9V3.3z"/>
	<path class="st0" d="M155.7,9.2c-0.1-0.5-0.3-0.9-0.5-1.3c-0.2-0.4-0.5-0.7-0.9-1c-0.4-0.3-0.8-0.4-1.3-0.4c-1.2,0-2.3,0.8-2.6,2
		c-0.6,2.1-0.9,4.3-0.8,6.5c0,1.5,0,2.8,0.1,4c0.1,1,0.2,2,0.5,3c0.2,0.7,0.5,1.4,1,1.9c0.5,0.5,1.1,0.7,1.7,0.7
		c0.3,0,0.7-0.1,1-0.2c0.4-0.2,0.7-0.4,1-0.7c0.3-0.4,0.6-0.8,0.8-1.2c0.2-0.5,0.3-1.1,0.3-1.7v-2.5h-3.2v-3.6h7.9v13.1h-3.6v-2.2
		h-0.1c-0.5,0.9-1.2,1.6-2.1,2c-0.9,0.4-2,0.6-3,0.6c-1.3,0.1-2.5-0.2-3.7-0.8c-1-0.6-1.8-1.4-2.2-2.4c-0.6-1.3-0.9-2.6-1.1-4
		c-0.2-1.9-0.3-3.7-0.3-5.6c0-1.8,0.1-3.6,0.4-5.4c0.2-1.4,0.7-2.7,1.4-3.9c0.6-1,1.5-1.8,2.5-2.3c1.2-0.6,2.6-0.8,3.9-0.8
		c2.7,0,4.6,0.7,5.8,2c1.3,1.6,1.9,3.7,1.8,5.7h-4.7C155.8,10.1,155.8,9.6,155.7,9.2z"/>
	<path class="st0" d="M175.3,3.3l6.4,24.3h-5.1l-1.1-5.1H169l-1.1,5.1h-5.1l6.4-24.3H175.3z M174.7,18.5l-2.4-10.9h-0.1l-2.4,10.9
		H174.7z"/>
	<path class="st0" d="M195.3,7.3H190v20.3h-4.9V7.3h-5.3v-4h15.5L195.3,7.3z"/>
	<path class="st0" d="M196.2,10.4c0.1-1.4,0.5-2.7,1.1-4c0.6-1.1,1.4-2,2.5-2.6c2.8-1.3,6-1.3,8.8,0c1.1,0.6,1.9,1.5,2.5,2.6
		c0.6,1.3,1,2.6,1.1,4c0.3,3.4,0.3,6.8,0,10.2c-0.1,1.4-0.5,2.7-1.1,4c-0.6,1.1-1.4,2-2.5,2.6c-2.8,1.2-6,1.2-8.8,0
		c-1.1-0.6-2-1.5-2.5-2.6c-0.6-1.3-1-2.6-1.1-4C195.8,17.3,195.8,13.8,196.2,10.4z M201,19.7c0,0.9,0.2,1.9,0.5,2.8
		c0.2,0.6,0.5,1.2,1,1.6c1.1,0.7,2.4,0.7,3.5,0c0.5-0.4,0.8-1,1-1.6c0.3-0.9,0.4-1.9,0.5-2.8c0.1-1.1,0.1-2.5,0.1-4.2
		c0-1.6,0-3-0.1-4.2c0-0.9-0.2-1.9-0.5-2.8c-0.2-0.6-0.5-1.2-1-1.6c-1.1-0.7-2.4-0.7-3.5,0c-0.5,0.4-0.8,1-1,1.6
		c-0.3,0.9-0.4,1.9-0.5,2.8c-0.1,1.1-0.1,2.5-0.1,4.2S200.9,18.5,201,19.7L201,19.7z"/>
	<path class="st0" d="M80.4,17v1.5h3.2v1h-3.2v3.1h-1.1v-3.1h-3.3v-1h3.3V17h-2.6v-6h2.6V9.6h-3.1v-1h3.1V6.7l1.4,0.1
		c0,0.1-0.1,0.2-0.3,0.2v1.6h3v1h-3V11h2.7v6L80.4,17z M77.6,11.9v1.7h1.8v-1.7H77.6z M77.6,14.4v1.7h1.8v-1.7L77.6,14.4z
		 M82.1,13.5v-1.7h-1.9v1.7H82.1z M82.1,16.1v-1.7h-1.9v1.7L82.1,16.1z M88.2,10.4h3.3v12.1h-1.1v-0.8H85v1h-1V10.4h3.1V6.7l1.4,0.1
		c0,0.1-0.1,0.2-0.3,0.2L88.2,10.4z M87.2,11.4H85v3.9h2.1L87.2,11.4z M85,16.4v4.2h2.1v-4.2H85z M90.5,15.4v-3.9h-2.3v3.9
		L90.5,15.4z M88.2,20.6h2.3v-4.2h-2.3V20.6z"/>
</g>
</svg>
