<svg id="Layer_1" data-name="Layer 1" xmlns="http://www.w3.org/2000/svg" xmlns:xlink="http://www.w3.org/1999/xlink" viewBox="0 0 600 600"><defs><style>.cls-1{fill:url(#linear-gradient);}.cls-2{fill:url(#linear-gradient-2);}.cls-3{fill:url(#linear-gradient-3);}.cls-4{fill:url(#linear-gradient-4);}.cls-5{fill:url(#linear-gradient-5);}.cls-6{fill:url(#linear-gradient-6);}</style><linearGradient id="linear-gradient" x1="270.88" y1="330.82" x2="236.49" y2="296.42" gradientUnits="userSpaceOnUse"><stop offset="0" stop-color="#fff"/><stop offset="1"/></linearGradient><linearGradient id="linear-gradient-2" x1="299.78" y1="318.54" x2="261.96" y2="280.72" xlink:href="#linear-gradient"/><linearGradient id="linear-gradient-3" x1="316.11" y1="318.54" x2="278.29" y2="280.72" xlink:href="#linear-gradient"/><linearGradient id="linear-gradient-4" x1="334.19" y1="324.09" x2="307.47" y2="297.37" xlink:href="#linear-gradient"/><linearGradient id="linear-gradient-5" x1="325.91" y1="277.04" x2="315.75" y2="266.89" xlink:href="#linear-gradient"/><linearGradient id="linear-gradient-6" x1="367.08" y1="331.98" x2="328.08" y2="292.99" xlink:href="#linear-gradient"/></defs><title>all in-gradient</title><path class="cls-1" d="M259.45,302.58s0,3.74-6.85,4.51l-2.2.25c-7.3.78-17.05,1.85-17.05,13.27,0,.13,0,12.53,15.57,12.53,5.57,0,9.71-2,11.58-3.87v3.13h8.78V303.94c.09-4.4-1.1-7.9-3.53-10.38-2.76-2.8-7-4.23-12.64-4.23-6.39,0-11.11,1.52-14.05,4.52-3.52,3.6-3.42,8.2-3.39,9.71V304h10l-.06-.48a5.41,5.41,0,0,1,1.26-3.65c1.17-1.33,3.12-2,5.81-2,2.94,0,4.94.68,6,1.94a3.86,3.86,0,0,1,.75,2.79m.38,10.66v1.38a9.84,9.84,0,0,1-2.71,7.28,10.87,10.87,0,0,1-7.41,2.91c-3,.08-5.93-1.42-6.21-3.9-.47-4.2,3.06-5.08,8.36-5.67a23.49,23.49,0,0,0,8-2"/><rect class="cls-2" x="275.83" y="266.84" width="10.07" height="65.57"/><rect class="cls-3" x="292.17" y="266.84" width="10.07" height="65.57"/><rect class="cls-4" x="315.79" y="289.05" width="10.07" height="43.37"/><rect class="cls-5" x="315.79" y="266.84" width="10.07" height="10.24"/><path class="cls-6" d="M366,299.2a14.66,14.66,0,0,0-2.2-5.54,11,11,0,0,0-4.36-3.84,16.41,16.41,0,0,0-7.15-1.57c-2.42,0-7.27.76-10.68,3.55v-2.86h-9.52v43.48H342.2V307.5a10.65,10.65,0,0,1,1.91-6.17,7.49,7.49,0,0,1,6.4-3.41,5,5,0,0,1,4.72,2.37c1,1.52,1.35,4.07,1.35,7.28v24.85h10.07V306.21a37.19,37.19,0,0,0-.61-7"/></svg>