<svg xmlns="http://www.w3.org/2000/svg" viewBox="0 0 88.5 44.03"><defs><style>.cls-1{fill:#231f20;}</style></defs><title>Asset 1</title><g id="Layer_2" data-name="Layer 2"><g id="Layer_1-2" data-name="Layer 1"><rect class="cls-1" x="54.73" y="14.75" width="6.69" height="28.79"/><path class="cls-1" d="M17.32,23.73s0,2.49-4.55,3l-1.46.17C6.48,27.41,0,28.12,0,35.7,0,35.79,0,44,10.34,44A11.28,11.28,0,0,0,18,41.46v2.08h5.83V24.63a9.19,9.19,0,0,0-2.35-6.89c-1.83-1.86-4.65-2.8-8.39-2.8-4.24,0-7.38,1-9.33,3a8.68,8.68,0,0,0-2.25,6.44v.28H8.16l0-.32A3.6,3.6,0,0,1,9,21.92a4.92,4.92,0,0,1,3.86-1.33c2,0,3.28.45,4,1.29a2.56,2.56,0,0,1,.5,1.85m.25,7.08v.92a6.51,6.51,0,0,1-1.8,4.83,7.2,7.2,0,0,1-4.91,1.93c-2,.05-3.94-.94-4.12-2.59-.31-2.79,2-3.37,5.55-3.76a15.52,15.52,0,0,0,5.29-1.33"/><rect class="cls-1" x="28.2" width="6.69" height="43.54"/><rect class="cls-1" x="39.05" width="6.69" height="43.54"/><rect class="cls-1" x="54.73" width="6.69" height="6.8"/><path class="cls-1" d="M88.09,21.48a9.72,9.72,0,0,0-1.46-3.68,7.34,7.34,0,0,0-2.89-2.55,10.94,10.94,0,0,0-4.75-1,12.12,12.12,0,0,0-7.09,2.36v-1.9H65.58V43.54h6.69V27a7.1,7.1,0,0,1,1.27-4.1,5,5,0,0,1,4.25-2.27,3.34,3.34,0,0,1,3.13,1.57,9.58,9.58,0,0,1,.9,4.83v16.5H88.5V26.14a24.62,24.62,0,0,0-.41-4.66"/></g></g></svg>