<?xml version="1.0" encoding="utf-8"?>
<!-- Generator: Adobe Illustrator 16.0.0, SVG Export Plug-In . SVG Version: 6.00 Build 0)  -->
<!DOCTYPE svg PUBLIC "-//W3C//DTD SVG 1.1//EN" "http://www.w3.org/Graphics/SVG/1.1/DTD/svg11.dtd">
<svg version="1.1" id="Layer_1" xmlns="http://www.w3.org/2000/svg" xmlns:xlink="http://www.w3.org/1999/xlink" x="0px" y="0px"
	 width="656.611px" height="326.625px" viewBox="171.694 336.688 656.611 326.625"
	 enable-background="new 171.694 336.688 656.611 326.625" xml:space="preserve">
<g>
	<g>
		<rect x="577.773" y="446.06" width="49.592" height="213.607"/>
		<g>
			<path d="M300.245,512.719c0,0,0.017,18.469-33.754,22.252c-3.351,0.378-7.042,0.815-10.799,1.225
				c-35.956,3.838-83.998,9.112-83.998,65.4c0,0.59,0.188,61.717,76.698,61.717c27.44,0,47.847-9.938,57.023-19.033V659.7h43.255
				V519.426c0.422-21.71-5.437-38.907-17.364-51.113c-13.607-13.812-34.529-20.817-62.292-20.817
				c-31.48,0-54.777,7.503-69.227,22.262c-17.32,17.692-16.815,40.367-16.69,47.827l0.033,2.064h49.147l-0.327-2.376
				c0-0.115-0.678-10.099,6.247-17.976c5.72-6.558,15.33-9.854,28.599-9.854c14.51,0,24.299,3.35,29.714,9.547
				C301.414,504.553,300.245,512.719,300.245,512.719 M302.083,565.221v6.815c0.158,14.595-4.423,26.97-13.346,35.856
				c-9.134,9.113-22.436,13.915-36.435,14.328c-14.671,0.396-29.243-6.999-30.638-19.226c-2.256-20.703,15.096-25.002,41.223-27.906
				C276.549,573.553,290.519,571.15,302.083,565.221"/>
			<rect x="380.942" y="336.688" width="49.618" height="323.012"/>
			<rect x="461.416" y="336.688" width="49.641" height="323.012"/>
			<rect x="577.773" y="336.688" width="49.592" height="50.399"/>
			<path d="M825.25,496.064c-2.02-10.65-5.69-19.831-10.822-27.277c-5.894-8.589-12.5-14.427-21.438-18.891
				c-9.824-4.96-22.683-7.769-35.226-7.769c-11.907,0-35.805,3.729-52.62,17.49v-14.093h-46.893V659.7h49.61V536.96
				c0-11.079,3.53-22.463,9.394-30.395c8.052-10.869,17.77-16.837,31.529-16.837c10.254,0,17.76,3.104,23.244,11.671
				c4.753,7.515,6.672,20.063,6.672,35.861V659.7h49.604V530.595C828.306,518.049,827.317,506.432,825.25,496.064"/>
		</g>
	</g>
</g>
</svg>
