<svg xmlns="http://www.w3.org/2000/svg" viewBox="0 0 18.16 25.01"><title>Asset 1</title><g id="Layer_2" data-name="Layer 2"><g id="Layer_1-2" data-name="Layer 1"><g id="loop"><path d="M9.08,3.41V0L4.53,4.55,9.08,9.1V5.69a6.84,6.84,0,0,1,6.82,6.82,7.23,7.23,0,0,1-.8,3.18l1.7,1.7a10.12,10.12,0,0,0,1.36-4.89A9.1,9.1,0,0,0,9.08,3.41Zm0,15.91A6.84,6.84,0,0,1,2.26,12.5a7.23,7.23,0,0,1,.8-3.18l-1.7-1.7A10.12,10.12,0,0,0,0,12.51,9.12,9.12,0,0,0,9.09,21.6V25l4.55-4.55L9.09,15.91v3.41Z"/></g></g></g></svg>