<?xml version="1.0" standalone="no"?>
<!DOCTYPE svg PUBLIC "-//W3C//DTD SVG 1.1//EN" "http://www.w3.org/Graphics/SVG/1.1/DTD/svg11.dtd" >
<svg xmlns="http://www.w3.org/2000/svg">
<metadata>
Created by FontPrep 20130207 at Mon Feb 20 20:26:41 2017
 By Jonathan Dion
Copyright by Timo Gaessner, Millieu Grotesque. All rights reserved.
</metadata>
<defs>
<font id="2c57d6d7a9c91413b9f3d6c604c7102f" horiz-adv-x='1024' >
  <font-face 
    font-family="MaisonMono-Regular"
    font-weight="400"
    font-stretch="normal"
    units-per-em="2048"
    panose-1="2 0 5 9 0 0 0 0 0 0"
    ascent="1638"
    descent="-410"
    x-height="1085"
    cap-height="1434"
    bbox="-16 -563 2107 1913"
    underline-thickness="102"
    underline-position="-205"
    unicode-range="U+0020-F8FF"
  />
<missing-glyph horiz-adv-x="1331" 
d="M242 653l28 -28l129 129l131 -129l29 28l-131 129l131 131l-29 29l-131 -131l-129 131l-28 -29l129 -131zM774 653l29 -28l129 129l131 -129l29 28l-131 129l131 131l-29 29l-131 -131l-129 131l-29 -29l129 -131zM66 0v866q0 238 175 418t424 180t422 -180
q178 -178 179 -418v-866h-58l-133 133l-139 -133l-129 133l-145 -133l-142 133l-129 -133l-137 133l-135 -133h-53z" />
    <glyph glyph-name=".notdef" horiz-adv-x="1331" 
d="M242 653l28 -28l129 129l131 -129l29 28l-131 129l131 131l-29 29l-131 -131l-129 131l-28 -29l129 -131zM774 653l29 -28l129 129l131 -129l29 28l-131 129l131 131l-29 29l-131 -131l-129 131l-29 -29l129 -131zM66 0v866q0 238 175 418t424 180t422 -180
q178 -178 179 -418v-866h-58l-133 133l-139 -133l-129 133l-145 -133l-142 133l-129 -133l-137 133l-135 -133h-53z" />
    <glyph glyph-name=".null" horiz-adv-x="0" 
 />
    <glyph glyph-name="nonmarkingreturn" horiz-adv-x="681" 
 />
    <glyph glyph-name="space" unicode=" " 
 />
    <glyph glyph-name="exclam" unicode="!" 
d="M567 0h-291v274h291v-274zM528 403h-213v1031h213v-1031z" />
    <glyph glyph-name="quotedbl" unicode="&#x22;" 
d="M1014 1085h-236v557h236v-557zM537 1085h-236v557h236v-557z" />
    <glyph glyph-name="numbersign" unicode="#" 
d="M532 971l-12 -193h209l14 193h-211zM37 602v176h297l12 193h-231v176h243l19 287h186l-18 -287h209l20 287h187l-21 -287h291v-176h-301l-12 -193h235v-176h-250l-18 -285h-189l19 285h-207l-21 -285h-186l21 285h-285z" />
    <glyph glyph-name="dollar" unicode="$" 
d="M758 -254h-215v231q-260 38 -376 266q-53 105 -69 249l213 36q12 -100 43 -172q72 -164 303 -172q131 0 210 58t79 164q0 104 -67 162t-261 108t-315 139q-121 90 -121 270q0 141 96 243t265 128v250h215v-254q143 -29 239 -123t133 -242l-208 -43q-61 205 -281 205
q-109 0 -173 -47t-65 -117q6 -55 35 -88t94 -61q45 -23 85 -33t96 -29l90 -28q37 -12 103 -38t147 -97q106 -88 118 -301q-1 -174 -111 -291t-302 -144v-229z" />
    <glyph glyph-name="percent" unicode="%" 
d="M964 -14q-114 0 -180 87t-65 253q0 166 65 253q66 87 180 87t180 -87t66 -253t-66 -253t-180 -87zM965 121q109 0 109 204t-109 203q-57 0 -83 -46t-26 -156t26 -158q26 -47 83 -47zM1188 1057l-1030 -795l-80 96l1034 797zM551 1108q-1 -166 -67 -253t-180 -87t-180 87
t-65 253q0 166 66 253q65 87 179 87t180 -87t67 -253zM305 903q109 0 109 204t-109 204q-57 0 -83 -46t-26 -157t26 -158t83 -47z" />
    <glyph glyph-name="ampersand" unicode="&#x26;" 
d="M291 434q0 -120 86 -190t223 -70q266 0 311 180l-419 355q-201 -84 -201 -275zM600 -31q-217 0 -367 125q-147 127 -147 340q0 283 252 410q-121 122 -121 282t113 249q114 89 266 89t254 -87t125 -230l-201 -33q0 10 -14 43t-30 52q-43 49 -125 50q-81 1 -132 -41
t-51 -108t70 -135l430 -367v240h204v-418l258 -227l-127 -148l-178 154q-123 -240 -479 -240z" />
    <glyph glyph-name="quotesingle" unicode="'" 
d="M752 1085h-236l2 557h236z" />
    <glyph glyph-name="parenleft" unicode="(" 
d="M991 -289l-151 -119q-394 459 -394 1013t394 1011l153 -117q-137 -145 -241 -373t-104 -521q0 -291 104 -521t239 -373z" />
    <glyph glyph-name="parenright" unicode=")" 
d="M823 605q0 -554 -393 -1013l-151 119q137 147 240 373t104 520q-1 293 -105 521t-242 374l154 117q393 -457 393 -1011z" />
    <glyph glyph-name="asterisk" unicode="*" 
d="M532 1434h201v-258l211 124l98 -178l-233 -133l182 -211l-151 -127l-209 240l-201 -242l-149 129l176 213l-232 133l103 174l204 -120v256z" />
    <glyph glyph-name="plus" unicode="+" 
d="M739 315h-209v340h-331v201h331v336h209v-336h330v-201h-330v-340z" />
    <glyph glyph-name="comma" unicode="," 
d="M276 0v274h291v-231q0 -262 -291 -338v133q98 47 99 162h-99z" />
    <glyph glyph-name="hyphen" unicode="-" 
d="M930 467h-592v205h592v-205z" />
    <glyph glyph-name="period" unicode="." 
d="M567 0h-291v274h291v-274z" />
    <glyph glyph-name="slash" unicode="/" 
d="M346 -92l-158 69l738 1557l155 -74z" />
    <glyph glyph-name="zero" unicode="0" 
d="M379 328l395 893q-63 29 -141 28q-164 0 -240 -119q-75 -119 -75 -397t61 -405zM633 184q165 0 241 119t76 399t-65 408l-393 -899q55 -27 141 -27zM638 -31q-249 0 -398 185q-147 186 -148 563q0 377 149 562t397 185t393 -189t145 -558t-144 -559t-394 -189z" />
    <glyph glyph-name="one" unicode="1" 
d="M1145 0h-991v215h383v973l-306 -195v236l326 205h205v-1219h383v-215z" />
    <glyph glyph-name="two" unicode="2" 
d="M1126 0h-966v254q0 217 98 319q100 102 350 189q131 45 216 100q85 56 85 162t-63 166t-189 59q-248 0 -286 -276l-213 39q20 200 157 326t341 126t341 -120t137 -322t-139 -303q-115 -83 -309 -147t-250 -121q-49 -55 -49 -236h739v-215z" />
    <glyph glyph-name="three" unicode="3" 
d="M627 184q84 0 176 31q135 43 135 213q0 227 -285 227h-110v203h108q51 0 97 13t84 63t38 129q0 80 -67 133q-68 53 -172 53q-207 0 -250 -202l-205 38q18 163 146 271t313 108q186 0 323 -105t138 -306q0 -68 -26 -138t-56 -106l-27 -33q57 -43 62 -47q115 -111 115 -313
t-152 -324q-152 -123 -372 -123t-368 120t-182 392l213 39q12 -172 98 -254t226 -82z" />
    <glyph glyph-name="four" unicode="4" 
d="M774 500v579l-399 -579h399zM774 287h-635v217l623 930h235v-934h174v-213h-174v-287h-223v287z" />
    <glyph glyph-name="five" unicode="5" 
d="M620 723q-84 0 -146 -22t-85 -46l-22 -22l-209 69l131 732h737v-215h-541l-57 -330q84 43 225 43q215 0 355 -130t141 -353q0 -223 -143 -351t-353 -129q-210 0 -348 109q-135 109 -176 287l201 49q57 -229 303 -230q80 0 168 37q123 55 123 234t-149 239q-71 29 -155 29
z" />
    <glyph glyph-name="six" unicode="6" 
d="M662 184q68 0 157 39q121 55 121 237t-160 238q-88 25 -131 25t-131 -25q-160 -62 -160 -247q0 -72 25 -125q45 -86 141 -121q70 -21 138 -21zM633 1249q-272 0 -299 -424l39 31q25 18 107 49t169 31q236 0 376 -129t140 -354t-141 -355t-367 -129q-262 0 -406 179
q-145 179 -145 544t140 569t393 203q203 0 328 -97q124 -98 157 -284l-213 -39q-31 111 -86 158t-192 47z" />
    <glyph glyph-name="seven" unicode="7" 
d="M389 1219v-160h-225v375h940v-256l-574 -1178h-254l598 1219h-485z" />
    <glyph glyph-name="eight" unicode="8" 
d="M127 416q0 129 54 222t108 128l18 14q-11 10 -29 30t-53 93q-31 74 -30 156q-1 176 125 291q126 114 316 114t312 -116q125 -113 125 -289q-1 -76 -27 -147t-59 -103l-26 -29q20 -12 61 -55q113 -104 119 -309q0 -209 -150 -328q-149 -119 -357 -119t-358 119
q-149 119 -149 328zM352 420q0 -111 75 -173q75 -63 208 -63t208 62t75 174t-78 182t-205 70t-205 -70t-78 -182zM640 1249q-96 0 -158 -53q-62 -54 -62 -150t65 -143q67 -43 133 -43t113 13t85 65t38 129q0 78 -59 130t-155 52z" />
    <glyph glyph-name="nine" unicode="9" 
d="M332 975q0 -182 160 -240q88 -25 131 -25t131 25q162 62 159 248q0 72 -26 123q-43 92 -139 121q-142 52 -295 -19q-121 -51 -121 -233zM640 184q271 0 298 424l-39 -30q-25 -18 -107 -50t-169 -30q-236 0 -377 129q-140 129 -140 354t142 354t366 129q262 0 406 -179
t145 -543q0 -364 -140 -569q-140 -204 -392 -204q-203 -1 -328 97t-158 284l213 39q31 -109 86 -158q58 -47 194 -47z" />
    <glyph glyph-name="colon" unicode=":" 
d="M567 811h-291v274h291v-274zM567 0h-291v274h291v-274z" />
    <glyph glyph-name="semicolon" unicode=";" 
d="M567 811h-291v274h291v-274zM276 0v274h291v-231q0 -262 -291 -338v133q98 47 99 162h-99z" />
    <glyph glyph-name="less" unicode="&#x3c;" 
d="M795 193l-504 501l497 498l150 -148l-358 -356l354 -356z" />
    <glyph glyph-name="equal" unicode="=" 
d="M1116 831h-962v203h962v-203zM1116 463h-962v201h962v-201z" />
    <glyph glyph-name="greater" unicode="&#x3e;" 
d="M475 193l-139 139l354 356l-358 356l149 148l498 -498z" />
    <glyph glyph-name="question" unicode="?" 
d="M741 0h-290v274h290v-274zM698 403h-204q0 141 38 229t156 173q45 33 98 76q88 80 88 180q0 61 -59 125t-184 63q-258 0 -291 -284l-209 34q21 215 155 340t330 125t339 -110q144 -110 145 -293q0 -113 -58 -196t-172 -169t-143 -140t-29 -153z" />
    <glyph glyph-name="at" unicode="@" 
d="M625 1462q305 0 471 -196h-2q164 -200 164 -482t-68 -383t-223 -102q-119 0 -160 57q-94 -61 -222 -61t-212 75t-84 193q0 229 297 271q137 16 137 61q0 70 -111 70q-40 0 -74 -32t-46 -81l-175 47q23 121 107 186q90 61 182 62q137 0 222 -66t85 -190v-354q0 -63 69 -63
t81 40q23 61 22 209q0 256 -109 412q-110 155 -346 155t-354 -157q-121 -158 -120 -426q0 -563 452 -564q119 0 279 86l84 -151q-180 -106 -363 -107q-313 0 -469 204q-155 204 -155 534q0 329 168 541t473 212zM723 557v115q-45 -14 -96 -17q-143 -12 -144 -90
q5 -91 123 -89q52 0 84 26t33 55z" />
    <glyph glyph-name="A" unicode="A" 
d="M633 1112l-197 -602h398zM266 0h-227l498 1434h196l498 -1434h-232l-102 317h-526z" />
    <glyph glyph-name="B" unicode="B" 
d="M367 647v-432h366q66 1 115 29q96 56 94 190q0 100 -59 156t-150 57h-366zM367 1219v-357h350q56 0 95 22q75 42 76 140t-49 146t-122 49h-350zM733 0h-592v1434h576q169 0 283 -115t114 -281q0 -74 -27 -142t-59 -99l-29 -29q23 -18 58 -53q104 -100 110 -281
q0 -201 -127 -321q-125 -113 -307 -113z" />
    <glyph glyph-name="C" unicode="C" 
d="M672 -31q-242 0 -393 185q-147 186 -148 563q0 377 149 562t392 185q207 0 344 -133t158 -342l-205 -37q-33 297 -297 297q-164 0 -240 -119q-76 -120 -76 -414t76 -413t240 -119q266 0 297 297l205 -37q-20 -211 -156 -343t-346 -132z" />
    <glyph glyph-name="D" unicode="D" 
d="M633 0h-488v1434h488q260 0 402 -178q143 -178 143 -540q0 -364 -142 -540t-403 -176zM371 1219v-1004h262q170 0 245 105t74 397q-7 377 -138 461q-65 41 -181 41h-262z" />
    <glyph glyph-name="E" unicode="E" 
d="M1104 0h-887v1434h887v-215h-662v-357h602v-215h-602v-432h662v-215z" />
    <glyph glyph-name="F" unicode="F" 
d="M440 0h-225v1434h889v-215h-664v-398h604v-215h-604v-606z" />
    <glyph glyph-name="G" unicode="G" 
d="M956 516h-419v197h645v-215q0 -228 -144 -378t-382 -150t-388 184q-147 186 -147 563q1 377 149 562t392 185q207 0 344 -133t157 -344l-205 -33q-31 295 -296 295q-164 0 -240 -119q-76 -120 -76 -414t76 -413t240 -119q295 0 294 299v33z" />
    <glyph glyph-name="H" unicode="H" 
d="M344 0h-223v1434h223v-572h582v572h225v-1434h-225v647h-582v-647z" />
    <glyph glyph-name="I" unicode="I" 
d="M1083 0h-899v215h336v1004h-336v215h899v-215h-338v-1004h338v-215z" />
    <glyph glyph-name="J" unicode="J" 
d="M596 184q150 0 226 80t77 221v734h-534v215h753v-936q0 -244 -143 -386t-365 -142t-357 133q-136 134 -159 341l207 35q39 -295 295 -295z" />
    <glyph glyph-name="K" unicode="K" 
d="M385 0h-225v1434h225v-691l520 691h240l-463 -619l549 -815h-268l-424 633l-154 -205v-428z" />
    <glyph glyph-name="L" unicode="L" 
d="M1139 0h-887v1434h225v-1219h662v-215z" />
    <glyph glyph-name="M" unicode="M" 
d="M365 0h-226v1434h213l277 -775l286 775h215v-1434h-225v981l-194 -498h-158l-188 498v-981z" />
    <glyph glyph-name="N" unicode="N" 
d="M403 0h-225v1434h195l512 -936v936h219v-1434h-182l-519 958v-958z" />
    <glyph glyph-name="O" unicode="O" 
d="M638 -31q-249 0 -398 185q-147 186 -148 563q0 377 149 562t397 185t393 -189t145 -558t-144 -559t-394 -189zM634 184q164 0 240 119t76 414t-76 413t-240 119q-164 0 -241 -119q-76 -120 -76 -414t76 -413t241 -119z" />
    <glyph glyph-name="P" unicode="P" 
d="M418 1219v-451h301q90 0 150 67q61 67 61 165t-60 158t-151 61h-301zM418 0h-225v1434h526q182 0 307 -129q129 -125 129 -311t-124 -314q-124 -127 -312 -127h-301v-553z" />
    <glyph glyph-name="Q" unicode="Q" 
d="M633 182q168 0 244 122q75 122 75 415t-76 411t-242 119q-167 0 -243 -119q-76 -118 -76 -410t75 -415t243 -123zM92 734q0 360 149 545t397 185t393 -189q144 -189 145 -558q0 -301 -100 -485t-275 -240q45 -113 225 -129v-213q-164 4 -283 89t-174 232
q-225 25 -351 214t-126 549z" />
    <glyph glyph-name="R" unicode="R" 
d="M424 1219v-414h260q62 1 109 27q92 52 92 176q-1 96 -59 153t-142 58h-260zM424 0h-225v1434h485q172 0 299 -122t127 -286t-76 -262t-149 -129l-27 -12l295 -623h-244l-280 590h-205v-590z" />
    <glyph glyph-name="S" unicode="S" 
d="M946 406q0 104 -67 162t-261 108t-315 139q-121 90 -121 258t121 280q121 111 323 111t330 -99q129 -99 174 -278l-208 -43q-61 205 -281 205q-109 0 -173 -47t-65 -117q6 -55 35 -88t94 -61q45 -23 85 -33t96 -29l90 -28q37 -12 103 -38t147 -97q106 -88 118 -301
q0 -197 -140 -319t-374 -122q-147 0 -260 49t-174 134q-111 164 -125 340l213 36q12 -100 43 -172q72 -164 303 -172q131 0 210 58q79 60 79 164z" />
    <glyph glyph-name="T" unicode="T" 
d="M748 0h-226v1219h-438v215h1102v-215h-438v-1219z" />
    <glyph glyph-name="U" unicode="U" 
d="M113 498v936h225v-945q0 -145 74 -225t221 -80q297 0 297 301v949h225v-936q0 -229 -145 -381q-144 -147 -376 -147t-376 150q-144 151 -145 378z" />
    <glyph glyph-name="V" unicode="V" 
d="M750 0h-232l-495 1434h243l369 -1127l373 1127h243z" />
    <glyph glyph-name="W" unicode="W" 
d="M440 0h-237l-154 1434h225l99 -1006l180 657h137l178 -634l107 983h225l-153 -1434h-238l-184 678z" />
    <glyph glyph-name="X" unicode="X" 
d="M319 0h-256l439 752l-396 682h246l273 -492l276 492h256l-403 -691l432 -743h-246l-309 553z" />
    <glyph glyph-name="Y" unicode="Y" 
d="M737 0h-221v623l-457 811h238l330 -609l331 609h252l-473 -818v-616z" />
    <glyph glyph-name="Z" unicode="Z" 
d="M1143 0h-1016v225l750 994h-721v215h987v-228l-750 -991h750v-215z" />
    <glyph glyph-name="bracketleft" unicode="[" 
d="M993 -461h-481v1925h481v-184h-286v-1556h286v-185z" />
    <glyph glyph-name="backslash" unicode="\" 
d="M1081 -23l-157 -69l-736 1552l156 74z" />
    <glyph glyph-name="bracketright" unicode="]" 
d="M758 -461h-482v185h287v1556h-287v184h482v-1925z" />
    <glyph glyph-name="asciicircum" unicode="^" 
d="M289 547h-166l446 887h131l447 -887h-164l-350 696z" />
    <glyph glyph-name="underscore" unicode="_" 
d="M1149 -199h-1028v199h1028v-199z" />
    <glyph glyph-name="grave" unicode="`" 
d="M881 1169h-275l-198 295h280z" />
    <glyph glyph-name="a" unicode="a" 
d="M587 1116q163 0 281 -89t119 -251v-538q0 -63 57 -64l48 6l51 -178q-57 -33 -117 -33t-107 23q-46 23 -65 49l-16 22q-110 -94 -296 -94t-300 89t-115 258q0 169 135 245q115 66 260 83t200 47q54 30 60 100q0 59 -56 90t-149 31t-142 -35q-48 -35 -68 -119l-203 37
q24 153 142 237t281 84zM782 338v192q-28 -41 -182 -60t-206 -55t-52 -112q0 -131 217 -129h10q108 0 171 65q42 42 42 99z" />
    <glyph glyph-name="b" unicode="b" 
d="M383 649v-223q0 -120 72 -186t209 -66q138 0 204 90t66 280t-67 279q-67 88 -205 88q-138 -1 -208 -69q-71 -68 -71 -193zM383 0h-215v1434h215v-420q121 102 291 102q217 0 346 -152t129 -421q0 -270 -128 -422t-347 -152q-166 0 -291 105v-74z" />
    <glyph glyph-name="c" unicode="c" 
d="M162 542q0 271 139 423t356 151q178 0 299 -97t170 -288l-213 -37q-27 113 -88 165t-168 52q-281 -1 -281 -369t281 -368q106 0 168 52q61 52 88 165l213 -37q-49 -190 -170 -287t-299 -98q-219 0 -357 151t-138 422z" />
    <glyph glyph-name="d" unicode="d" 
d="M883 428v221q0 123 -72 193t-210 70t-205 -89q-66 -88 -66 -278t66 -281q67 -90 204 -91t210 67t73 188zM1098 0h-215v74q-129 -104 -293 -105q-219 0 -347 152t-128 422t129 422t346 151q172 0 293 -102v420h215v-1434z" />
    <glyph glyph-name="e" unicode="e" 
d="M629 911q-125 0 -183 -64t-75 -185h516q-17 123 -75 186t-183 63zM631 -31q-217 0 -348 150t-131 422t129 424q129 151 348 151t349 -152t130 -423v-60h-743q12 -155 71 -231t195 -76q94 0 151 43t88 141l203 -59q-49 -162 -163 -246t-279 -84z" />
    <glyph glyph-name="f" unicode="f" 
d="M752 1249q-128 0 -136 -123v-264h474v-205h-474v-657h-215v657h-213v205h213v291q-1 139 97 225t250 86t255 -94q104 -94 123 -260l-194 -37q-23 102 -63 139t-117 37z" />
    <glyph glyph-name="g" unicode="g" 
d="M676 -287q107 0 165 66t58 180v115q-127 -104 -285 -105q-219 0 -347 152t-128 422t129 422t346 151q170 0 285 -102v71h215v-1122q0 -201 -125 -325q-123 -129 -323 -130q-337 1 -439 318l203 63q29 -92 84 -134t162 -42zM899 428v234q0 118 -70 184q-71 66 -207 66
t-202 -89q-66 -88 -66 -278q0 -371 260 -371q137 0 211 68t74 186z" />
    <glyph glyph-name="h" unicode="h" 
d="M416 0h-215v1434h215v-410q112 92 284 92t287 -128t115 -329v-659h-215v678q-1 106 -61 170t-174 63q-114 0 -175 -60t-61 -163v-688z" />
    <glyph glyph-name="i" unicode="i" 
d="M786 1214h-235v220h235v-220zM1130 0h-962v205h403v676h-354v204h569v-880h344v-205z" />
    <glyph glyph-name="j" unicode="j" 
d="M1036 1214h-235v220h235v-220zM584 -287q231 0 231 246v922h-426v204h647v-1122q0 -199 -127 -327t-316 -128t-312 100t-160 286l213 38q47 -219 250 -219z" />
    <glyph glyph-name="k" unicode="k" 
d="M451 0h-215v1434h215v-818l372 469h256l-336 -401l414 -684h-229l-326 518l-151 -184v-334z" />
    <glyph glyph-name="l" unicode="l" 
d="M1130 0h-1003v205h397v1024h-311v205h526v-1229h391v-205z" />
    <glyph glyph-name="m" unicode="m" 
d="M301 0h-215v1085h215v-71q18 25 23 28q16 18 71 46t113 28q109 0 205 -102q90 102 204 102q113 0 185 -70t72 -184v-862h-211v811q0 42 -35 71q-35 30 -87 30t-78 -28t-26 -65v-819h-213v811q0 17 -5 35t-34 42t-81 24t-77 -28q-26 -28 -26 -65v-819z" />
    <glyph glyph-name="n" unicode="n" 
d="M416 0h-215v1085h215v-71q28 39 111 70q84 32 153 32q186 0 303 -126t117 -326v-664h-215v670q-1 114 -61 178t-175 64t-174 -60q-59 -59 -59 -162v-690z" />
    <glyph glyph-name="o" unicode="o" 
d="M1128 542q0 -271 -138 -422t-361 -151t-361 150q-137 150 -137 422t139 424q140 151 360 151t359 -152t139 -422zM627 174q287 0 287 369t-287 368q-281 -1 -281 -369t281 -368z" />
    <glyph glyph-name="p" unicode="p" 
d="M387 649v-221q0 -118 73 -186t209 -68q137 0 201 88t64 280t-64 281q-64 88 -201 88q-138 1 -210 -69t-72 -193zM387 -461h-215v1546h215v-71q121 102 293 102q217 0 346 -152t129 -421q0 -270 -128 -422t-347 -152q-164 0 -293 105v-535z" />
    <glyph glyph-name="q" unicode="q" 
d="M862 428v221q0 125 -71 194q-72 69 -210 69q-137 0 -201 -89t-64 -281t64 -280q65 -88 202 -88q136 0 208 68t72 186zM1077 -461h-215v535q-129 -104 -293 -105q-219 0 -347 152t-128 422t129 422t346 151q172 0 293 -102v71h215v-1546z" />
    <glyph glyph-name="r" unicode="r" 
d="M1053 0h-918v205h291v676h-266v204h481v-71q24 42 86 72q63 31 127 30q121 0 207 -98t102 -275l-211 -38q-37 207 -174 206q-68 0 -102 -41t-35 -88v-577h412v-205z" />
    <glyph glyph-name="s" unicode="s" 
d="M646 174q114 0 171 39t57 97t-53 91t-184 66l-119 31q-169 48 -231 137q-41 59 -49 164q0 88 75 194q94 123 326 123q102 0 183 -33t127 -84q90 -100 110 -196l-203 -37q-18 61 -74 103t-147 42q-90 1 -136 -33t-46 -81t53 -77t188 -63l78 -20l76 -25q57 -16 78 -30
q92 -55 116 -99q47 -74 48 -168q0 -137 -109 -241t-338 -104t-350 134q-99 121 -115 248l209 37q12 -95 79 -155q66 -60 180 -60z" />
    <glyph glyph-name="t" unicode="t" 
d="M354 276v605h-215v204h215v349h217v-349h473v-204h-473v-584q-5 -56 37 -89q41 -32 111 -33q69 -1 107 36t55 143l198 -37q-41 -348 -374 -348q-151 0 -251 83t-100 224z" />
    <glyph glyph-name="u" unicode="u" 
d="M166 422v663h215v-669q1 -114 65 -178t181 -64t180 59t63 162v690h215v-1085h-215v72q-14 -12 -36 -30t-95 -45q-72 -28 -143 -28q-186 0 -309 127q-121 131 -121 326z" />
    <glyph glyph-name="v" unicode="v" 
d="M723 0h-184l-418 1085h229l275 -766l286 766h226z" />
    <glyph glyph-name="w" unicode="w" 
d="M463 0h-191l-174 1085h211l99 -667l151 667h143l150 -659l98 659h207l-176 -1085h-186l-168 735z" />
    <glyph glyph-name="x" unicode="x" 
d="M367 0h-258l393 571l-355 514h256l226 -348l227 348h260l-356 -516l395 -569h-258l-266 403z" />
    <glyph glyph-name="y" unicode="y" 
d="M94 -389l99 166q195 -121 237 -6l117 323l-434 991h231l311 -731l269 731h233l-549 -1411q-63 -166 -227 -166q-137 1 -287 103z" />
    <glyph glyph-name="z" unicode="z" 
d="M1092 0h-928v193l624 688h-610v204h879v-198l-592 -682h627v-205z" />
    <glyph glyph-name="braceleft" unicode="{" 
d="M545 -141v467q0 86 -94 86h-86v178h86q94 0 94 90v463q0 153 84 237t239 84h156v-204h-139q-63 0 -94 -28t-31 -99v-500q0 -119 -76 -133q76 -14 76 -131v-500q0 -69 31 -97t94 -28h139v-205h-156q-156 0 -240 84t-83 236z" />
    <glyph glyph-name="bar" unicode="|" 
d="M741 -563h-215v2099h215v-2099z" />
    <glyph glyph-name="braceright" unicode="}" 
d="M401 -461h-155v205h139q63 0 94 28t31 97v500q0 117 76 131q-76 14 -76 133v500q0 71 -31 99t-94 28h-139v204h155q156 0 240 -85t84 -236v-463q0 -90 94 -90h86v-178h-86q-94 0 -94 -86v-467q0 -152 -84 -236t-240 -84z" />
    <glyph glyph-name="asciitilde" unicode="~" 
d="M477 913q72 0 168 -51q102 -49 140 -49q38 1 61 21t49 79l109 -65q-27 -86 -84 -138q-56 -52 -128 -52t-170 50t-138 50t-62 -21t-49 -80l-109 66q27 86 84 138t129 52z" />
    <glyph glyph-name="exclamdown" unicode="&#xa1;" 
d="M657 1159h-290v275h290v-275zM618 0h-212v1030h212v-1030z" />
    <glyph glyph-name="cent" unicode="&#xa2;" 
d="M735 -262h-215v246q-174 39 -273 185q-99 145 -99 373t100 374t272 186v246h215v-240q289 -45 377 -377l-213 -37q-27 113 -88 165t-168 52q-281 -1 -281 -369t281 -368q106 0 168 52q61 52 88 165l213 -37q-88 -332 -377 -377v-239z" />
    <glyph glyph-name="sterling" unicode="&#xa3;" 
d="M1219 0h-1127v215h55q59 0 99 36q39 36 39 101v244h-193v213h193v238q0 201 129 309t310 108t300 -103t137 -276l-205 -38q-31 203 -231 202q-97 0 -157 -55t-60 -147v-238h561v-213h-561v-381h711v-215z" />
    <glyph glyph-name="currency" unicode="&#xa4;" 
d="M634 352q126 0 200 77t74 245t-74 247t-199 78q-276 0 -277 -327q0 -166 75 -243t201 -77zM150 671q0 171 96 308l-133 133l82 82l129 -131q139 117 315 117t307 -113l127 127l82 -82l-131 -131q94 -137 94 -310t-96 -306l133 -132l-82 -81l-131 129q-131 -105 -311 -105
t-305 107l-131 -131l-82 81l133 134q-96 133 -96 304z" />
    <glyph glyph-name="yen" unicode="&#xa5;" 
d="M524 313h-411v185h411v151h-411v185h303l-348 600h239l324 -584l327 584h244l-350 -600h305v-185h-412v-151h412v-185h-412v-313h-221v313z" />
    <glyph glyph-name="brokenbar" unicode="&#xa6;" 
d="M739 0h-209v526h209v-526zM739 823h-209v527h209v-527z" />
    <glyph glyph-name="section" unicode="&#xa7;" 
d="M647 -82q158 0 158 113q0 76 -74 112q-29 18 -76 39l-49 21q-104 43 -121 51l-116 51q-35 15 -95 57t-94 84q-76 109 -76 256q0 201 183 328q-27 55 -27 127q0 156 106 232q106 75 260 75q152 0 252 -96t121 -250l-194 -33q-13 82 -61 129q-48 48 -124 48t-115 -32
q-40 -32 -40 -92t72 -106q35 -18 77 -37l48 -20q78 -29 122 -51l115 -52q41 -18 100 -59q166 -115 166 -327t-182 -339q27 -55 27 -127q0 -154 -108 -230t-258 -77q-152 0 -253 96t-121 250l195 33q14 -82 61 -128t121 -46zM956 475q0 91 -50 151t-228 128t-264 131
q-100 -57 -101 -183q-1 -88 51 -149t203 -121q203 -76 289 -139q100 57 100 182z" />
    <glyph glyph-name="dieresis" unicode="&#xa8;" 
d="M545 1231h-213v203h213v-203zM936 1231h-211v203h211v-203z" />
    <glyph glyph-name="copyright" unicode="&#xa9;" 
d="M635 215q217 0 363 147q146 146 146 366t-146 364t-363 145q-217 0 -365 -145q-148 -146 -147 -364q0 -218 147 -366q148 -147 365 -147zM634 111q-261 0 -439 178q-177 180 -177 440t178 437t438 177q261 0 439 -176t178 -438t-178 -440t-439 -178zM379 606v223
q0 123 73 199t185 76t184 -64t86 -170l-108 -18q-31 143 -154 143q-74 0 -113 -42t-38 -111v-244q0 -72 38 -114t113 -42q123 0 154 144l108 -21q-14 -105 -86 -167q-73 -62 -185 -62t-184 74t-73 196z" />
    <glyph glyph-name="ordfeminine" unicode="&#xaa;" 
d="M612 1448q108 0 185 -59q76 -59 75 -162v-348q0 -43 37 -43l31 4l33 -117q-39 -20 -82 -21q-92 0 -125 56q-61 -56 -182 -56t-196 58t-75 162t71 154q70 50 176 62t140 33q34 20 39 66q0 78 -133 78q-61 1 -92 -21t-45 -77l-133 22q12 93 90 151t186 58zM739 942v125
q-13 -27 -115 -39t-137 -36t-34 -72q0 -84 149 -84q39 -2 87 24t50 82z" />
    <glyph glyph-name="guillemotleft" unicode="&#xab;" 
d="M653 72h-196l-297 510l307 503h211l-313 -514zM1085 72h-198l-297 510l309 503h211l-315 -514z" />
    <glyph glyph-name="logicalnot" unicode="&#xac;" 
d="M954 668h-848v200h1057v-462h-209v262z" />
    <glyph glyph-name="registered" unicode="&#xae;" 
d="M635 215q217 0 363 147q146 146 146 366t-146 364t-363 145q-217 0 -365 -145q-148 -146 -147 -364q0 -218 147 -366q148 -147 365 -147zM634 111q-261 0 -439 178q-177 180 -177 440t178 437t438 177q261 0 439 -176t178 -438t-178 -440t-439 -178zM545 989v-217h135
q39 0 71 27q31 27 31 79t-28 82t-74 29h-135zM545 356h-113v740h248q92 0 157 -62t64 -151q0 -150 -127 -205l148 -322h-123l-152 308h-102v-308z" />
    <glyph glyph-name="overscore" unicode="&#xaf;" 
d="M981 1229h-692v164h692v-164z" />
    <glyph glyph-name="degree" unicode="&#xb0;" 
d="M526 1026q51 0 88 34t37 108t-37 107q-37 34 -88 34t-88 -34q-37 -33 -37 -107t37 -108t88 -34zM246 1166q0 124 81 211t203 87t202 -85q81 -85 81 -213t-81 -210t-205 -82t-203 84q-78 84 -78 208z" />
    <glyph glyph-name="plusminus" unicode="&#xb1;" 
d="M741 315h-209v340h-331v201h331v336h209v-336h330v-201h-330v-340zM1071 0h-874v201h874v-201z" />
    <glyph glyph-name="twosuperior" unicode="&#xb2;" 
d="M870 758h-485v133q0 86 51 139q50 53 154 98q104 44 120 64t17 41q0 74 -96 74q-43 0 -73 -30t-36 -79l-131 23q18 104 84 163q66 60 163 60t165 -60t67 -151q0 -133 -213 -223q-73 -31 -97 -53t-25 -60h335v-139z" />
    <glyph glyph-name="threesuperior" unicode="&#xb3;" 
d="M750 969q0 92 -109 92h-70v100h70q33 0 55 23t23 57q0 63 -82 63t-94 -90l-133 23q8 94 72 151q65 56 158 56t158 -54q64 -54 64 -134t-45 -126q76 -55 76 -160q0 -106 -68 -164q-69 -58 -183 -58q-238 0 -269 266l137 26q14 -154 125 -153q115 0 115 82z" />
    <glyph glyph-name="acute" unicode="&#xb4;" 
d="M897 1462l-444 -260l-82 148l442 249z" />
    <glyph glyph-name="mu" unicode="&#xb5;" 
d="M389 -461h-215v1546h215v-690q-1 -101 63 -161t181 -60t181 65t65 177v669h215v-1085h-215v72q-16 -16 -35 -30q-20 -14 -84 -43q-64 -28 -126 -28q-62 1 -124 19t-92 41l-29 20v-512z" />
    <glyph glyph-name="paragraph" unicode="&#xb6;" 
d="M645 -133h-209v917q-150 0 -256 90q-102 90 -102 237t90 235t233 88h668v-1567h-209v1362h-215v-1362z" />
    <glyph glyph-name="middot" unicode="&#xb7;" 
d="M780 655h-291v275h291v-275z" />
    <glyph glyph-name="cedilla" unicode="&#xb8;" 
d="M614 -295q72 0 78 64q2 27 -20 35t-48 0q-24 -7 -26 -17l-4 -8l-107 33l50 188h112l-22 -90q29 4 35 4q158 0 141 -154q-6 -72 -58 -116q-47 -50 -133 -48t-149 72l84 70q31 -33 67 -33z" />
    <glyph glyph-name="onesuperior" unicode="&#xb9;" 
d="M862 788h-467v136h170v374h-127v136h264v-510h160v-136z" />
    <glyph glyph-name="ordmasculine" unicode="&#xba;" 
d="M881 1106q0 -168 -68 -253q-69 -85 -179 -85t-178 85t-67 253q0 168 68 253q69 85 179 85t178 -85t67 -253zM634 903q62 0 89 46t27 158t-27 157t-89 45t-89 -44t-27 -157t27 -159t89 -46z" />
    <glyph glyph-name="guillemotright" unicode="&#xbb;" 
d="M813 72h-197l289 499l-313 514h211l307 -503zM383 72h-199l291 499l-315 514h211l309 -503z" />
    <glyph glyph-name="onequarter" unicode="&#xbc;" 
d="M539 788h-467v136h170v374h-127v136h264v-510h160v-136zM1182 1012l-1030 -795l-80 96l1034 797zM952 260v197l-141 -197h141zM952 121h-311v123l309 424h146v-408h73v-139h-73v-121h-144v121z" />
    <glyph glyph-name="onehalf" unicode="&#xbd;" 
d="M539 788h-467v136h170v374h-127v136h264v-510h160v-136zM1182 1012l-1030 -795l-80 96l1034 797zM1198 0h-485v133q0 162 196 229q137 49 138 107q-1 74 -87 74t-110 -109l-135 23q23 104 87 164q66 59 160 59t161 -58t67 -153q0 -158 -205 -221q-73 -25 -97 -45t-26 -64
h336v-139z" />
    <glyph glyph-name="threequarters" unicode="&#xbe;" 
d="M362 903q111 0 111 80q0 90 -104 90h-68v96h68q33 0 55 22q22 21 20 53q0 32 -23 48q-24 16 -56 17q-80 0 -93 -88l-129 22q9 89 71 145t152 56t154 -53t64 -130t-45 -122q73 -53 73 -155t-64 -160q-65 -56 -176 -56t-181 64t-82 194l133 27q14 -150 120 -150zM952 260
v197l-141 -197h141zM952 121h-311v123l309 424h146v-408h73v-139h-73v-121h-144v121zM1202 1012l-1030 -795l-80 96l1034 797z" />
    <glyph glyph-name="questiondown" unicode="&#xbf;" 
d="M780 1159h-291v275h291v-275zM614 -31q-196 0 -340 111q-143 111 -143 293q0 113 57 195t172 170q115 86 144 139t28 153h205q0 -143 -38 -230t-156 -171q-45 -33 -99 -76q-88 -80 -88 -180q0 -59 60 -125q61 -63 184 -64q258 0 291 285l209 -35q-20 -215 -154 -340
q-136 -125 -332 -125z" />
    <glyph glyph-name="Agrave" unicode="&#xc0;" 
d="M639 1495l-444 260l84 137l442 -264zM633 1112l-197 -602h398zM266 0h-227l498 1434h196l498 -1434h-232l-102 317h-526z" />
    <glyph glyph-name="Aacute" unicode="&#xc1;" 
d="M973 1892l84 -137l-445 -260l-82 133zM633 1112l-197 -602h398zM266 0h-227l498 1434h196l498 -1434h-232l-102 317h-526z" />
    <glyph glyph-name="Acircumflex" unicode="&#xc2;" 
d="M633 1722l-203 -221l-102 107l247 250h113l248 -250l-100 -107zM633 1112l-197 -602h398zM266 0h-227l498 1434h196l498 -1434h-232l-102 317h-526z" />
    <glyph glyph-name="Atilde" unicode="&#xc3;" 
d="M633 1112l-197 -602h398zM266 0h-227l498 1434h196l498 -1434h-232l-102 317h-526zM498 1786q72 0 161 -45q88 -45 123 -45q78 0 103 90h114q-16 -94 -71 -163t-128 -69t-161 45t-125 46q-77 -1 -102 -91h-115q17 90 73 161t128 71z" />
    <glyph glyph-name="Adieresis" unicode="&#xc4;" 
d="M633 1112l-197 -602h398zM266 0h-227l498 1434h196l498 -1434h-232l-102 317h-526zM549 1583h-213v203h213v-203zM940 1583h-211v203h211v-203z" />
    <glyph glyph-name="Aring" unicode="&#xc5;" 
d="M633 1112l-197 -602h398zM266 0h-227l498 1434h196l498 -1434h-232l-102 317h-526zM537 1682q0 -108 97 -107q97 0 97 107t-96 108q-98 0 -98 -108zM636 1487q-83 0 -135 55t-52 139q0 83 53 141t135 58t135 -57t53 -141t-53 -140q-53 -55 -136 -55z" />
    <glyph glyph-name="AE" unicode="&#xc6;" 
d="M680 449v706l-240 -706h240zM1221 1434v-215h-316v-357h256v-194h-256v-453h316v-215h-541v256h-320l-102 -256h-231l555 1434h639z" />
    <glyph glyph-name="Ccedilla" unicode="&#xc7;" 
d="M676 -293q72 0 78 64q2 27 -21 35t-47 2t-27 -17l-4 -8l-106 31l41 161q-225 25 -351 211t-126 547q1 361 149 546t391 185q207 0 344 -133t158 -342l-205 -37q-33 297 -297 297q-163 0 -239 -119q-76 -120 -76 -414t76 -413t239 -119q266 0 297 297l205 -37
q-20 -200 -141 -328t-312 -145l-14 -57q29 4 35 4q158 0 141 -154q-6 -72 -57 -116q-47 -50 -133 -48t-150 72l84 70q31 -35 68 -35z" />
    <glyph glyph-name="Egrave" unicode="&#xc8;" 
d="M680 1495l-444 260l83 137l443 -264zM1077 0h-887v1434h887v-215h-661v-357h602v-215h-602v-432h661v-215z" />
    <glyph glyph-name="Eacute" unicode="&#xc9;" 
d="M952 1892l84 -137l-444 -260l-82 133zM1077 0h-887v1434h887v-215h-661v-357h602v-215h-602v-432h661v-215z" />
    <glyph glyph-name="Ecircumflex" unicode="&#xca;" 
d="M633 1722l-203 -221l-102 107l247 250h113l248 -250l-100 -107zM1077 0h-887v1434h887v-215h-661v-357h602v-215h-602v-432h661v-215z" />
    <glyph glyph-name="Edieresis" unicode="&#xcb;" 
d="M547 1585h-213v203h213v-203zM938 1585h-211v203h211v-203zM1077 0h-887v1434h887v-215h-661v-357h602v-215h-602v-432h661v-215z" />
    <glyph glyph-name="Igrave" unicode="&#xcc;" 
d="M639 1495l-444 260l84 137l442 -264zM1083 0h-899v215h336v1004h-336v215h899v-215h-338v-1004h338v-215z" />
    <glyph glyph-name="Iacute" unicode="&#xcd;" 
d="M952 1892l84 -137l-444 -260l-82 133zM1083 0h-899v215h336v1004h-336v215h899v-215h-338v-1004h338v-215z" />
    <glyph glyph-name="Icircumflex" unicode="&#xce;" 
d="M637 1722l-203 -221l-102 107l248 250h112l248 -250l-100 -107zM1083 0h-899v215h336v1004h-336v215h899v-215h-338v-1004h338v-215z" />
    <glyph glyph-name="Idieresis" unicode="&#xcf;" 
d="M547 1585h-213v203h213v-203zM938 1585h-211v203h211v-203zM1083 0h-899v215h336v1004h-336v215h899v-215h-338v-1004h338v-215z" />
    <glyph glyph-name="Eth" unicode="&#xd0;" 
d="M389 639v-424h262q170 0 245 105t75 397q-7 377 -138 461q-65 41 -182 41h-262v-375h307v-205h-307zM651 0h-487v639h-125v205h125v590h487q261 0 403 -178t142 -540q0 -364 -142 -540t-403 -176z" />
    <glyph glyph-name="Ntilde" unicode="&#xd1;" 
d="M356 0h-225v1434h195l594 -977v977h219v-1434h-183l-600 999v-999zM482 1786q73 0 161 -45t123 -45q78 0 102 90h115q-15 -94 -71 -163t-128 -69t-161 45q-88 45 -125 46q-78 -1 -103 -91h-114q16 90 69 160q59 72 132 72z" />
    <glyph glyph-name="Ograve" unicode="&#xd2;" 
d="M659 1516l-444 260l84 137l442 -264zM638 -31q-249 0 -398 185q-147 186 -148 563q0 377 149 562t397 185t393 -189t145 -558t-144 -559t-394 -189zM634 184q164 0 240 119t76 414t-76 413t-240 119q-164 0 -241 -119q-76 -120 -76 -414t76 -413t241 -119z" />
    <glyph glyph-name="Oacute" unicode="&#xd3;" 
d="M952 1913l84 -137l-444 -260l-82 133zM638 -31q-249 0 -398 185q-147 186 -148 563q0 377 149 562t397 185t393 -189t145 -558t-144 -559t-394 -189zM634 184q164 0 240 119t76 414t-76 413t-240 119q-164 0 -241 -119q-76 -120 -76 -414t76 -413t241 -119z" />
    <glyph glyph-name="Ocircumflex" unicode="&#xd4;" 
d="M633 1722l-203 -221l-102 107l247 250h113l248 -250l-100 -107zM638 -31q-249 0 -398 185q-147 186 -148 563q0 377 149 562t397 185t393 -189t145 -558t-144 -559t-394 -189zM634 184q164 0 240 119t76 414t-76 413t-240 119q-164 0 -241 -119q-76 -120 -76 -414
t76 -413t241 -119z" />
    <glyph glyph-name="Otilde" unicode="&#xd5;" 
d="M770 1716q78 0 102 90h115q-15 -94 -71 -162t-128 -69q-72 0 -161 45q-88 45 -125 45q-78 0 -103 -90h-114q16 90 69 160q59 71 132 71t161 -45t123 -45zM638 -31q-249 0 -398 185q-147 186 -148 563q0 377 149 562t397 185t393 -189t145 -558t-144 -559t-394 -189z
M634 184q164 0 240 119t76 414t-76 413t-240 119q-164 0 -241 -119q-76 -120 -76 -414t76 -413t241 -119z" />
    <glyph glyph-name="Odieresis" unicode="&#xd6;" 
d="M547 1585h-213v203h213v-203zM938 1585h-211v203h211v-203zM638 -31q-249 0 -398 185q-147 186 -148 563q0 377 149 562t397 185t393 -189t145 -558t-144 -559t-394 -189zM634 184q164 0 240 119t76 414t-76 413t-240 119q-164 0 -241 -119q-76 -120 -76 -414t76 -413
t241 -119z" />
    <glyph glyph-name="multiply" unicode="&#xd7;" 
d="M289 268l-139 140l350 350l-350 350l131 131l350 -350l348 348l139 -139l-348 -348l348 -349l-131 -129l-348 346z" />
    <glyph glyph-name="Oslash" unicode="&#xd8;" 
d="M633 1249q-164 0 -240 -119q-76 -118 -76 -374t39 -373l467 807q-70 59 -190 59zM633 184q165 0 241 119t76 383t-49 387l-471 -817q72 -72 203 -72zM92 726q0 368 149 553t392 185q172 0 297 -90l53 90l111 -59l-70 -121q152 -200 152 -568t-144 -557t-399 -190
q-186 0 -311 101l-58 -101l-112 60l79 137q-139 192 -139 560z" />
    <glyph glyph-name="Ugrave" unicode="&#xd9;" 
d="M659 1495l-444 260l84 137l442 -264zM113 498v936h225v-945q0 -145 74 -225t221 -80q297 0 297 301v949h225v-936q0 -229 -145 -381q-144 -147 -376 -147t-376 150q-144 151 -145 378z" />
    <glyph glyph-name="Uacute" unicode="&#xda;" 
d="M952 1892l84 -137l-444 -260l-82 133zM113 498v936h225v-945q0 -145 74 -225t221 -80q297 0 297 301v949h225v-936q0 -229 -145 -381q-144 -147 -376 -147t-376 150q-144 151 -145 378z" />
    <glyph glyph-name="Ucircumflex" unicode="&#xdb;" 
d="M633 1722l-203 -221l-102 107l247 250h113l248 -250l-100 -107zM113 498v936h225v-945q0 -145 74 -225t221 -80q297 0 297 301v949h225v-936q0 -229 -145 -381q-144 -147 -376 -147t-376 150q-144 151 -145 378z" />
    <glyph glyph-name="Udieresis" unicode="&#xdc;" 
d="M547 1585h-213v203h213v-203zM938 1585h-211v203h211v-203zM113 498v936h225v-945q0 -145 74 -225t221 -80q297 0 297 301v949h225v-936q0 -229 -145 -381q-144 -147 -376 -147t-376 150q-144 151 -145 378z" />
    <glyph glyph-name="Yacute" unicode="&#xdd;" 
d="M952 1892l84 -137l-444 -260l-82 133zM737 0h-221v623l-457 811h238l330 -609l331 609h252l-473 -818v-616z" />
    <glyph glyph-name="Thorn" unicode="&#xde;" 
d="M399 1042v-450h301q90 0 151 66q60 67 60 165q0 99 -60 159t-151 60h-301zM399 0h-225v1434h225v-177h301q180 0 308 -129q129 -125 129 -311t-124 -313t-313 -127h-301v-377z" />
    <glyph glyph-name="germandbls" unicode="&#xdf;" 
d="M387 0h-215v1049q0 201 130 309t316 106q186 0 316 -114q131 -114 131 -301q0 -78 -35 -153t-92 -126q199 -113 199 -352q-1 -210 -137 -314t-382 -104h-38v205h104l74 12q76 15 116 65t48 148q0 229 -295 229h-47v172h47q79 -1 151 53t72 160t-64 160q-64 56 -170 56
t-167 -62t-62 -168v-1030z" />
    <glyph glyph-name="agrave" unicode="&#xe0;" 
d="M643 1202l-444 260l84 137l442 -264zM587 1116q163 0 281 -89t119 -251v-538q0 -63 57 -64l48 6l51 -178q-57 -33 -117 -33t-107 23q-46 23 -65 49l-16 22q-110 -94 -296 -94t-300 89t-115 258q0 169 135 245q115 66 260 83t200 47q54 30 60 100q0 59 -56 90t-149 31
t-142 -35q-48 -35 -68 -119l-203 37q24 153 142 237t281 84zM782 338v192q-28 -41 -182 -60t-206 -55t-52 -112q0 -131 217 -129h10q108 0 171 65q42 42 42 99z" />
    <glyph glyph-name="aacute" unicode="&#xe1;" 
d="M903 1602l84 -138l-444 -260l-82 133zM587 1116q163 0 281 -89t119 -251v-538q0 -63 57 -64l48 6l51 -178q-57 -33 -117 -33t-107 23q-46 23 -65 49l-16 22q-110 -94 -296 -94t-300 89t-115 258q0 169 135 245q115 66 260 83t200 47q54 30 60 100q0 59 -56 90t-149 31
t-142 -35q-48 -35 -68 -119l-203 37q24 153 142 237t281 84zM782 338v192q-28 -41 -182 -60t-206 -55t-52 -112q0 -131 217 -129h10q108 0 171 65q42 42 42 99z" />
    <glyph glyph-name="acircumflex" unicode="&#xe2;" 
d="M600 1397l-203 -221l-102 106l248 250h112l248 -250l-100 -106zM587 1116q163 0 281 -89t119 -251v-538q0 -63 57 -64l48 6l51 -178q-57 -33 -117 -33t-107 23q-46 23 -65 49l-16 22q-110 -94 -296 -94t-300 89t-115 258q0 169 135 245q115 66 260 83t200 47
q54 30 60 100q0 59 -56 90t-149 31t-142 -35q-48 -35 -68 -119l-203 37q24 153 142 237t281 84zM782 338v192q-28 -41 -182 -60t-206 -55t-52 -112q0 -131 217 -129h10q108 0 171 65q42 42 42 99z" />
    <glyph glyph-name="atilde" unicode="&#xe3;" 
d="M442 1495q72 0 160 -45t125 -45q78 0 102 90h115q-16 -94 -72 -163q-56 -68 -128 -68q-74 0 -162 45t-123 45q-78 0 -103 -90h-114q16 90 72 160t128 71zM587 1116q163 0 281 -89t119 -251v-538q0 -63 57 -64l48 6l51 -178q-57 -33 -117 -33t-107 23q-46 23 -65 49
l-16 22q-110 -94 -296 -94t-300 89t-115 258q0 169 135 245q115 66 260 83t200 47q54 30 60 100q0 59 -56 90t-149 31t-142 -35q-48 -35 -68 -119l-203 37q24 153 142 237t281 84zM782 338v192q-28 -41 -182 -60t-206 -55t-52 -112q0 -131 217 -129h10q108 0 171 65
q42 42 42 99z" />
    <glyph glyph-name="adieresis" unicode="&#xe4;" 
d="M506 1231h-213v203h213v-203zM897 1231h-211v203h211v-203zM587 1116q163 0 281 -89t119 -251v-538q0 -63 57 -64l48 6l51 -178q-57 -33 -117 -33t-107 23q-46 23 -65 49l-16 22q-110 -94 -296 -94t-300 89t-115 258q0 169 135 245q115 66 260 83t200 47q54 30 60 100
q0 59 -56 90t-149 31t-142 -35q-48 -35 -68 -119l-203 37q24 153 142 237t281 84zM782 338v192q-28 -41 -182 -60t-206 -55t-52 -112q0 -131 217 -129h10q108 0 171 65q42 42 42 99z" />
    <glyph glyph-name="aring" unicode="&#xe5;" 
d="M500 1380q0 -108 97 -108t97 107t-96 108q-98 1 -98 -107zM599 1184q-83 0 -135 55t-52 139t53 142t135 57q82 0 135 -57q53 -58 53 -142t-53 -139t-136 -55zM587 1116q163 0 281 -89t119 -251v-538q0 -63 57 -64l48 6l51 -178q-57 -33 -117 -33t-107 23q-46 23 -65 49
l-16 22q-110 -94 -296 -94t-300 89t-115 258q0 169 135 245q115 66 260 83t200 47q54 30 60 100q0 59 -56 90t-149 31t-142 -35q-48 -35 -68 -119l-203 37q24 153 142 237t281 84zM782 338v192q-28 -41 -182 -60t-206 -55t-52 -112q0 -131 217 -129h10q108 0 171 65
q42 42 42 99z" />
    <glyph glyph-name="ae" unicode="&#xe6;" 
d="M1016 662q0 62 -14 132q-29 137 -130 138q-66 0 -102 -70t-39 -133l-4 -67h289zM520 334v188q-3 -25 -76 -40t-77 -15q-102 -35 -103 -160q0 -154 131 -153q72 0 99 39q26 39 26 141zM63 314q0 142 70 226q70 83 236 113q91 16 121 45t30 100q0 70 -22 102t-73 32
q-53 0 -81 -35t-53 -121l-172 51q61 289 305 289q72 0 140 -28t95 -70q-4 6 19 29t76 47t118 22q158 0 245 -139t87 -412v-84h-477q0 -186 30 -257t115 -70q53 0 87 48t40 105l7 51l172 -32q0 -50 -31 -140t-97 -153t-164 -63q-97 0 -159 35q-62 36 -94 85
q-59 -118 -254 -121q-145 0 -232 101q-84 102 -84 244z" />
    <glyph glyph-name="ccedilla" unicode="&#xe7;" 
d="M696 -293q72 0 78 64q2 27 -20 35t-48 2q-24 -6 -26 -17l-4 -8l-107 31l41 159q-199 14 -325 164q-123 150 -123 413t139 415t356 151q178 0 299 -97t170 -288l-213 -37q-27 113 -88 165t-168 52q-281 -1 -281 -369t281 -368q106 0 168 52q61 52 88 165l213 -37
q-88 -344 -401 -381l-16 -59q29 4 34 4q158 0 142 -154q-6 -72 -58 -116q-47 -50 -133 -48t-149 72l84 70q31 -35 67 -35z" />
    <glyph glyph-name="egrave" unicode="&#xe8;" 
d="M664 1202l-445 260l84 137l442 -264zM629 911q-125 0 -183 -64t-75 -185h516q-17 123 -75 186t-183 63zM631 -31q-217 0 -348 150t-131 422t129 424q129 151 348 151t349 -152t130 -423v-60h-743q12 -155 71 -231t195 -76q94 0 151 43t88 141l203 -59q-49 -162 -163 -246
t-279 -84z" />
    <glyph glyph-name="eacute" unicode="&#xe9;" 
d="M944 1602l84 -138l-444 -260l-82 133zM629 911q-125 0 -183 -64t-75 -185h516q-17 123 -75 186t-183 63zM631 -31q-217 0 -348 150t-131 422t129 424q129 151 348 151t349 -152t130 -423v-60h-743q12 -155 71 -231t195 -76q94 0 151 43t88 141l203 -59
q-49 -162 -163 -246t-279 -84z" />
    <glyph glyph-name="ecircumflex" unicode="&#xea;" 
d="M629 1397l-203 -221l-102 106l247 250h113l248 -250l-101 -106zM629 911q-125 0 -183 -64t-75 -185h516q-17 123 -75 186t-183 63zM631 -31q-217 0 -348 150t-131 422t129 424q129 151 348 151t349 -152t130 -423v-60h-743q12 -155 71 -231t195 -76q94 0 151 43t88 141
l203 -59q-49 -162 -163 -246t-279 -84z" />
    <glyph glyph-name="edieresis" unicode="&#xeb;" 
d="M545 1231h-213v203h213v-203zM936 1231h-211v203h211v-203zM629 911q-125 0 -183 -64t-75 -185h516q-17 123 -75 186t-183 63zM631 -31q-217 0 -348 150t-131 422t129 424q129 151 348 151t349 -152t130 -423v-60h-743q12 -155 71 -231t195 -76q94 0 151 43t88 141
l203 -59q-49 -162 -163 -246t-279 -84z" />
    <glyph glyph-name="igrave" unicode="&#xec;" 
d="M705 1202l-445 260l84 137l442 -264zM1151 0h-963v205h404v676h-354v204h569v-880h344v-205z" />
    <glyph glyph-name="iacute" unicode="&#xed;" 
d="M903 1602l84 -138l-444 -260l-82 133zM1151 0h-963v205h404v676h-354v204h569v-880h344v-205z" />
    <glyph glyph-name="icircumflex" unicode="&#xee;" 
d="M627 1397l-203 -221l-102 106l247 250h113l248 -250l-101 -106zM1151 0h-963v205h404v676h-354v204h569v-880h344v-205z" />
    <glyph glyph-name="idieresis" unicode="&#xef;" 
d="M1151 0h-963v205h404v676h-354v204h569v-880h344v-205zM532 1231h-213v203h213v-203zM924 1231h-211v203h211v-203z" />
    <glyph glyph-name="eth" unicode="&#xf0;" 
d="M631 174q266 0 266 369t-266 368q-260 -1 -260 -369t260 -368zM1112 541q0 -270 -133 -421t-346 -151t-345 151t-132 422t127 423q129 152 321 151q109 0 201 -45q-47 108 -119 217l-293 -80l-31 113l252 70q-90 113 -178 190v6h250q57 -57 123 -143l254 69l31 -112
l-215 -60q233 -366 233 -800z" />
    <glyph glyph-name="ntilde" unicode="&#xf1;" horiz-adv-x="1249" 
d="M474 1497q72 0 160 -45t124 -45q78 0 102 90h115q-15 -94 -71 -163t-142 -68q-60 0 -148 45t-125 45q-77 0 -102 -90h-115q16 90 72 160q58 70 130 71zM395 0h-215v1085h215v-71q27 38 111 70t153 32q185 0 303 -126t117 -326v-664h-215v670q0 114 -60 178t-175 64
t-174 -60q-59 -59 -60 -162v-690z" />
    <glyph glyph-name="ograve" unicode="&#xf2;" 
d="M684 1202l-444 260l84 137l442 -264zM1128 542q0 -271 -138 -422t-361 -151t-361 150q-137 150 -137 422t139 424q140 151 360 151t359 -152t139 -422zM627 174q287 0 287 369t-287 368q-281 -1 -281 -369t281 -368z" />
    <glyph glyph-name="oacute" unicode="&#xf3;" 
d="M944 1602l84 -138l-444 -260l-82 133zM1128 542q0 -271 -138 -422t-361 -151t-361 150q-137 150 -137 422t139 424q140 151 360 151t359 -152t139 -422zM627 174q287 0 287 369t-287 368q-281 -1 -281 -369t281 -368z" />
    <glyph glyph-name="ocircumflex" unicode="&#xf4;" 
d="M635 1397l-203 -221l-102 106l248 250h112l248 -250l-100 -106zM1128 542q0 -271 -138 -422t-361 -151t-361 150q-137 150 -137 422t139 424q140 151 360 151t359 -152t139 -422zM627 174q287 0 287 369t-287 368q-281 -1 -281 -369t281 -368z" />
    <glyph glyph-name="otilde" unicode="&#xf5;" 
d="M486 1497q73 0 161 -45t123 -45q78 0 102 90h115q-15 -94 -71 -163t-142 -68q-59 0 -147 45t-125 45q-78 0 -103 -90h-114q16 90 72 160t129 71zM1128 542q0 -271 -138 -422t-361 -151t-361 150q-137 150 -137 422t139 424q140 151 360 151t359 -152t139 -422zM627 174
q287 0 287 369t-287 368q-281 -1 -281 -369t281 -368z" />
    <glyph glyph-name="odieresis" unicode="&#xf6;" 
d="M547 1231h-213v203h213v-203zM938 1231h-211v203h211v-203zM1128 542q0 -271 -138 -422t-361 -151t-361 150q-137 150 -137 422t139 424q140 151 360 151t359 -152t139 -422zM627 174q287 0 287 369t-287 368q-281 -1 -281 -369t281 -368z" />
    <glyph glyph-name="divide" unicode="&#xf7;" 
d="M766 102h-258v242h258v-242zM766 848h-258v237h258v-237zM1137 498h-1004v200h1004v-200z" />
    <glyph glyph-name="oslash" unicode="&#xf8;" 
d="M639 911q-281 0 -281 -366q0 -117 25 -193l428 512q-66 47 -172 47zM926 545q0 135 -37 219l-438 -526q70 -63 188 -64q287 0 287 371zM1141 528q-1 -257 -139 -408t-348 -151t-335 113l-92 -113l-98 78l109 129q-94 139 -94 388t138 401q140 152 357 151q174 0 301 -96
l82 96l96 -78l-90 -108q113 -145 113 -402z" />
    <glyph glyph-name="ugrave" unicode="&#xf9;" 
d="M684 1202l-444 260l84 137l442 -264zM166 422v663h215v-669q1 -114 65 -178t181 -64t180 59t63 162v690h215v-1085h-215v72q-14 -12 -36 -30t-95 -45q-72 -28 -143 -28q-186 0 -309 127q-121 131 -121 326z" />
    <glyph glyph-name="uacute" unicode="&#xfa;" 
d="M924 1602l84 -138l-445 -260l-82 133zM166 422v663h215v-669q1 -114 65 -178t181 -64t180 59t63 162v690h215v-1085h-215v72q-14 -12 -36 -30t-95 -45q-72 -28 -143 -28q-186 0 -309 127q-121 131 -121 326z" />
    <glyph glyph-name="ucircumflex" unicode="&#xfb;" 
d="M627 1397l-203 -221l-102 106l247 250h113l248 -250l-101 -106zM166 422v663h215v-669q1 -114 65 -178t181 -64t180 59t63 162v690h215v-1085h-215v72q-14 -12 -36 -30t-95 -45q-72 -28 -143 -28q-186 0 -309 127q-121 131 -121 326z" />
    <glyph glyph-name="udieresis" unicode="&#xfc;" 
d="M547 1231h-213v203h213v-203zM938 1231h-211v203h211v-203zM166 422v663h215v-669q1 -114 65 -178t181 -64t180 59t63 162v690h215v-1085h-215v72q-14 -12 -36 -30t-95 -45q-72 -28 -143 -28q-186 0 -309 127q-121 131 -121 326z" />
    <glyph glyph-name="yacute" unicode="&#xfd;" 
d="M924 1602l84 -138l-445 -260l-82 133zM94 -389l99 166q195 -121 237 -6l117 323l-434 991h231l311 -731l269 731h233l-549 -1411q-63 -166 -227 -166q-137 1 -287 103z" />
    <glyph glyph-name="thorn" unicode="&#xfe;" 
d="M348 666v-230q0 -131 71 -206q71 -74 209 -74t207 94t68 295q0 201 -68 293q-69 92 -207 92t-209 -70t-71 -194zM348 -408h-188v1842h188v-439q118 121 320 121t321 -148t119 -424t-119 -425q-119 -150 -321 -150t-320 119v-496z" />
    <glyph glyph-name="ydieresis" unicode="&#xff;" 
d="M94 -389l99 166q195 -121 237 -6l117 323l-434 991h231l311 -731l269 731h233l-549 -1411q-63 -166 -227 -166q-137 1 -287 103zM567 1231h-213v203h213v-203zM958 1231h-210v203h210v-203z" />
    <glyph glyph-name="dotlessi" unicode="&#x131;" 
d="M1130 0h-962v205h403v676h-354v204h569v-880h344v-205z" />
    <glyph glyph-name="Lslash" unicode="&#x141;" 
d="M1139 0h-846v600l-174 -61v204l174 62v629h225v-557l428 151v-205l-428 -151v-457h621v-215z" />
    <glyph glyph-name="lslash" unicode="&#x142;" 
d="M1130 0h-1003v205h397v553l-188 -68v207l188 66v266h-311v205h526v-408l183 66v-209l-183 -66v-612h391v-205z" />
    <glyph glyph-name="OE" unicode="&#x152;" 
d="M342 719q0 -287 74 -395t235 -109v1004q-169 -5 -239 -109t-70 -391zM874 645v-430h318v-215h-533q-248 0 -395 170q-145 174 -145 542t142 544q142 177 398 178h533v-215h-318v-359h261v-215h-261z" />
    <glyph glyph-name="oe" unicode="&#x153;" 
d="M764 662h289q-1 62 -15 132t-48 104t-81 34t-80 -35t-49 -109t-16 -126zM380 154q91 0 126 87t35 305t-33 302t-126 84t-128 -86t-35 -301t35 -303t126 -88zM29 545q0 295 80 433t272 138q82 0 143 -28t87 -55q26 -28 40 -66q5 16 33 47q90 102 225 102q164 0 248 -144
t84 -407v-84h-477q0 -184 29 -256t116 -71q53 0 87 48t40 105l6 51l172 -32q0 -50 -30 -140t-98 -153q-67 -63 -173 -64q-186 0 -260 148q-74 -147 -272 -148q-352 0 -352 576z" />
    <glyph glyph-name="Scaron" unicode="&#x160;" 
d="M698 1518h-112l-248 249l102 107l203 -221l203 221l100 -107zM946 406q0 104 -67 162t-261 108t-315 139q-121 90 -121 258t121 280q121 111 323 111t330 -99q129 -99 174 -278l-208 -43q-61 205 -281 205q-109 0 -173 -47t-65 -117q6 -55 35 -88t94 -61q45 -23 85 -33
t96 -29l90 -28q37 -12 103 -38t147 -97q106 -88 118 -301q0 -197 -140 -319t-374 -122q-147 0 -260 49t-174 134q-111 164 -125 340l213 36q12 -100 43 -172q72 -164 303 -172q131 0 210 58q79 60 79 164z" />
    <glyph glyph-name="scaron" unicode="&#x161;" 
d="M696 1165h-112l-248 250l102 107l203 -222l203 222l100 -107zM646 174q114 0 171 39t57 97t-53 91t-184 66l-119 31q-169 48 -231 137q-41 59 -49 164q0 88 75 194q94 123 326 123q102 0 183 -33t127 -84q90 -100 110 -196l-203 -37q-18 61 -74 103t-147 42
q-90 1 -136 -33t-46 -81t53 -77t188 -63l78 -20l76 -25q57 -16 78 -30q92 -55 116 -99q47 -74 48 -168q0 -137 -109 -241t-338 -104t-350 134q-99 121 -115 248l209 37q12 -95 79 -155q66 -60 180 -60z" />
    <glyph glyph-name="Ydieresis" unicode="&#x178;" 
d="M737 0h-221v623l-457 811h238l330 -609l331 609h252l-473 -818v-616zM530 1585h-213v203h213v-203zM922 1585h-211v203h211v-203z" />
    <glyph glyph-name="Zcaron" unicode="&#x17d;" 
d="M690 1497h-112l-248 250l102 106l203 -221l203 221l100 -106zM1143 0h-1016v225l750 994h-721v215h987v-228l-750 -991h750v-215z" />
    <glyph glyph-name="zcaron" unicode="&#x17e;" 
d="M692 1145h-112l-248 250l102 106l203 -221l203 221l100 -106zM1092 0h-928v193l624 688h-610v204h879v-198l-592 -682h627v-205z" />
    <glyph glyph-name="florin" unicode="&#x192;" 
d="M113 -342l32 199q131 0 185 41q53 41 67 131l131 723h-196l35 204h196l21 103q43 213 159 315q104 90 414 90l-37 -204q-178 0 -237 -43t-88 -179l-17 -82h236l-35 -204h-236l-118 -654q-51 -285 -174 -364q-65 -44 -139 -60t-199 -16z" />
    <glyph glyph-name="circumflex" unicode="&#x2c6;" 
d="M633 1298l-203 -221l-102 107l247 250h113l248 -250l-100 -107z" />
    <glyph glyph-name="caron" unicode="&#x2c7;" 
d="M684 1077h-113l-247 250l102 107l203 -222l202 222l101 -107z" />
    <glyph glyph-name="breve" unicode="&#x2d8;" 
d="M432 1434h94q8 -41 38 -64q30 -22 69 -22t69 22t39 64h95q-14 -80 -68 -130t-134 -50t-134 50t-68 130z" />
    <glyph glyph-name="dotaccent" unicode="&#x2d9;" 
d="M752 1335h-236v232h236v-232z" />
    <glyph glyph-name="ring" unicode="&#x2da;" 
d="M632 1128q97 0 97 108t-97 107q-97 1 -97 -107t97 -108zM634 1040q-83 0 -135 56q-53 56 -53 139q0 84 54 141q54 58 135 58q82 0 135 -58t53 -141t-53 -139t-136 -56z" />
    <glyph glyph-name="ogonek" unicode="&#x2db;" 
d="M631 -436q-92 0 -149 37q-56 37 -56 112q0 162 203 287h125q-164 -145 -164 -240q0 -74 88 -73q67 -1 137 73l70 -63q-115 -133 -254 -133z" />
    <glyph glyph-name="tilde" unicode="&#x2dc;" 
d="M483 1434q72 0 160 -45t125 -46q78 0 102 91h115q-15 -94 -71 -163t-130 -69t-161 45q-88 45 -123 45q-78 0 -103 -90h-114q16 90 69 160q59 72 131 72z" />
    <glyph glyph-name="hungarumlaut" unicode="&#x2dd;" 
d="M492 1049h-195l141 385h193zM795 1049h-197l143 385h193z" />
    <glyph glyph-name="uni03A9" unicode="&#x3a9;" horiz-adv-x="1331" 
d="M242 653l28 -28l129 129l131 -129l29 28l-131 129l131 131l-29 29l-131 -131l-129 131l-28 -29l129 -131zM774 653l29 -28l129 129l131 -129l29 28l-131 129l131 131l-29 29l-131 -131l-129 131l-29 -29l129 -131zM66 0v866q0 238 175 418t424 180t422 -180
q178 -178 179 -418v-866h-58l-133 133l-139 -133l-129 133l-145 -133l-142 133l-129 -133l-137 133l-135 -133h-53z" />
    <glyph glyph-name="pi" unicode="&#x3c0;" 
d="M72 891v194h1124v-194h-207v-586q0 -190 27 -305h-199q-35 63 -35 293v598h-268l-100 -891h-205l100 891h-237z" />
    <glyph glyph-name="endash" unicode="&#x2013;" 
d="M1145 467h-1022v205h1022v-205z" />
    <glyph glyph-name="emdash" unicode="&#x2014;" horiz-adv-x="2539" 
d="M2107 477h-1677v195h1677v-195z" />
    <glyph glyph-name="quoteleft" unicode="&#x2018;" 
d="M993 897h-291v231q0 262 291 338v-133q-98 -47 -98 -162h98v-274z" />
    <glyph glyph-name="quoteright" unicode="&#x2019;" 
d="M276 1159v275h291v-232q0 -262 -291 -338v133q98 47 99 162h-99z" />
    <glyph glyph-name="quotesinglbase" unicode="&#x201a;" 
d="M276 0v274h291v-231q0 -262 -291 -338v133q98 47 99 162h-99z" />
    <glyph glyph-name="quotedblleft" unicode="&#x201c;" 
d="M582 897h-291v231q0 262 291 338v-133q-98 -47 -99 -162h99v-274zM993 897h-291v231q0 262 291 338v-133q-98 -47 -98 -162h98v-274z" />
    <glyph glyph-name="quotedblright" unicode="&#x201d;" 
d="M786 1159h-98v275h291v-232q0 -262 -291 -338v133q98 47 98 162zM276 1159v275h291v-232q0 -262 -291 -338v133q98 47 99 162h-99z" />
    <glyph glyph-name="quotedblbase" unicode="&#x201e;" 
d="M786 0h-98v274h291v-231q0 -262 -291 -338v133q98 47 98 162zM276 0v274h291v-231q0 -262 -291 -338v133q98 47 99 162h-99z" />
    <glyph glyph-name="dagger" unicode="&#x2020;" 
d="M743 -109h-215v934h-487v199h487v543h215v-543h484v-199h-484v-934z" />
    <glyph glyph-name="daggerdbl" unicode="&#x2021;" 
d="M743 0h-215v436h-309v199h309v254h-309v196h309v349h215v-349h308v-196h-308v-254h308v-199h-308v-436z" />
    <glyph glyph-name="bullet" unicode="&#x2022;" 
d="M410 794q0 100 62 164t162 64t164 -65q62 -65 62 -165t-62 -164q-62 -65 -163 -65q-100 0 -163 66q-62 66 -62 165z" />
    <glyph glyph-name="ellipsis" unicode="&#x2026;" 
d="M1241 0h-291v274h291v-274zM807 0h-291v274h291v-274zM373 0h-291v274h291v-274z" />
    <glyph glyph-name="perthousand" unicode="&#x2030;" 
d="M965 121q109 0 109 204t-109 203q-57 0 -83 -46t-26 -156t26 -158q26 -47 83 -47zM1319 121q109 0 109 204t-109 203q-57 0 -83 -46t-26 -156t26 -158q26 -47 83 -47zM305 903q109 0 109 204t-109 204q-57 0 -83 -46t-26 -157t26 -158t83 -47zM1188 1057l-1030 -795
l-80 96l1034 797zM551 1108q-1 -166 -67 -253t-180 -87t-180 87t-65 253q0 166 66 253q65 87 179 87t180 -87t67 -253zM965 -14q-115 0 -181 87t-65 253q0 166 65 253q66 87 181 87q55 0 105 -28t71 -67l16 27q17 24 63 46t99 22q113 0 179 -87t67 -253q0 -166 -67 -253
q-66 -87 -184 -87t-173 92q-61 -92 -176 -92z" />
    <glyph glyph-name="guilsinglleft" unicode="&#x2039;" 
d="M905 94h-229l-311 506l276 485h221l-266 -479z" />
    <glyph glyph-name="guilsinglright" unicode="&#x203a;" 
d="M629 94h-221l266 479l-309 512h229l311 -505z" />
    <glyph glyph-name="fraction" unicode="&#x2044;" 
d="M203 -141l-133 80l997 1663l131 -82z" />
    <glyph glyph-name="Euro" unicode="&#x20ac;" 
d="M172 717v12l-119 -12v203l133 12q42 262 180 397t346 135t345 -133t157 -342l-204 -37q-33 297 -297 297q-129 -1 -201 -69t-98 -226l409 41v-198l-426 -45v-35q0 -70 2 -88l424 43v-199l-399 -43q30 -129 100 -187t189 -59q266 0 297 297l204 -37q-20 -211 -155 -343
t-337 -132t-333 111t-184 328l-152 -15v203l123 12q-4 94 -4 109z" />
    <glyph glyph-name="trademark" unicode="&#x2122;" 
d="M756 754h-129v680h151l148 -480l143 480h152v-680h-127v389l-129 -389h-82l-127 389v-389zM328 754h-129v553h-183v127h490v-127h-178v-553z" />
    <glyph glyph-name="Omega" unicode="&#x2126;" 
d="M563 0h-514v164h178q-184 207 -184 558t169 547q169 195 423 195t423 -196t169 -547q0 -352 -187 -557h181v-164h-514v143q133 27 214 167t81 398t-98 400q-97 142 -267 141q-170 0 -269 -142q-100 -141 -100 -399t81 -398t214 -167v-143z" />
    <glyph glyph-name="partialdiff" unicode="&#x2202;" 
d="M604 825q-205 0 -242 -247q-66 -356 209 -398q129 -18 211 67t113 263q16 129 23 225q-174 90 -314 90zM691 1614q116 0 207 -70t141 -180q102 -225 95 -541t-86 -513q-156 -386 -516 -330q-217 34 -321 202t-61 436q29 193 144 297q116 103 272 107t360 -76
q-2 207 -76 342q-70 135 -217 135q-92 0 -207 -82l-39 -26l-100 141q20 20 51 44t134 69t219 45z" />
    <glyph glyph-name="increment" unicode="&#x2206;" 
d="M633 1112l-318 -913h637zM1245 0h-1222l505 1434h213z" />
    <glyph glyph-name="product" unicode="&#x220f;" 
d="M451 -289h-205v1405h-226v215h1227v-215h-225v-1405h-205v1405h-366v-1405z" />
    <glyph glyph-name="summation" unicode="&#x2211;" 
d="M1130 -205h-991v209l492 631l-471 590v209h970v-215h-686l447 -582l-471 -627h710v-215z" />
    <glyph glyph-name="minus" unicode="&#x2212;" 
d="M1145 467h-1022v205h1022v-205z" />
    <glyph glyph-name="radical" unicode="&#x221a;" 
d="M4 668v200h432l182 -549l381 1115h226l-502 -1434h-207l-233 668h-279z" />
    <glyph glyph-name="infinity" unicode="&#x221e;" horiz-adv-x="1331" 
d="M242 653l28 -28l129 129l131 -129l29 28l-131 129l131 131l-29 29l-131 -131l-129 131l-28 -29l129 -131zM774 653l29 -28l129 129l131 -129l29 28l-131 129l131 131l-29 29l-131 -131l-129 131l-29 -29l129 -131zM66 0v866q0 238 175 418t424 180t422 -180
q178 -178 179 -418v-866h-58l-133 133l-139 -133l-129 133l-145 -133l-142 133l-129 -133l-137 133l-135 -133h-53z" />
    <glyph glyph-name="integral" unicode="&#x222b;" 
d="M336 -356l-17 204q131 6 181 60t47 147l-58 1258q-25 440 447 463l14 -203q-135 -7 -187 -59t-48 -150l59 -1255q12 -221 -93 -335t-345 -130z" />
    <glyph glyph-name="approxequal" unicode="&#x2248;" 
d="M389 680q57 0 131 -29l41 -16l49 -23q15 -4 30 -12t17 -8q195 -88 233 -88t58 24t47 82l125 -47q-39 -113 -93 -168t-148 -55q-20 0 -134 22q-57 25 -67 27l-203 94q-71 35 -101 35t-50 -26t-48 -82l-126 49q72 221 239 221zM389 1022q57 0 131 -29l41 -16l49 -23
q15 -4 30 -12t17 -8q195 -88 233 -88t58 24t47 82l125 -47q-39 -113 -93 -168t-148 -55q-20 0 -134 23q-57 25 -67 26l-203 94q-71 35 -101 35t-50 -26t-48 -82l-126 49q72 221 239 221z" />
    <glyph glyph-name="notequal" unicode="&#x2260;" 
d="M106 416v207h402l80 153h-482v207h588l140 266l147 -69l-102 -197h284v-207h-393l-80 -153h473v-207h-581l-160 -310l-148 66l127 244h-295z" />
    <glyph glyph-name="lessequal" unicode="&#x2264;" 
d="M1071 0h-874v201h874v-201zM770 254l-504 502l498 497l149 -147l-358 -356l354 -357z" />
    <glyph glyph-name="greaterequal" unicode="&#x2265;" 
d="M1071 0h-874v201h874v-201zM498 254l-140 139l355 357l-359 356l150 147l497 -497z" />
    <glyph glyph-name="lozenge" unicode="&#x25ca;" 
d="M317 729l316 -557l319 557l-319 533zM766 0h-262l-412 729l400 705h282l404 -705z" />
    <glyph glyph-name="apple" unicode="&#xf8ff;" horiz-adv-x="1331" 
d="M242 653l28 -28l129 129l131 -129l29 28l-131 129l131 131l-29 29l-131 -131l-129 131l-28 -29l129 -131zM774 653l29 -28l129 129l131 -129l29 28l-131 129l131 131l-29 29l-131 -131l-129 131l-29 -29l129 -131zM66 0v866q0 238 175 418t424 180t422 -180
q178 -178 179 -418v-866h-58l-133 133l-139 -133l-129 133l-145 -133l-142 133l-129 -133l-137 133l-135 -133h-53z" />
    <glyph glyph-name="NULL" horiz-adv-x="0" 
 />
    <glyph glyph-name="CR" horiz-adv-x="681" 
 />
    <glyph glyph-name="RS" 
d="M14 670v811h209v-627h746l-242 397h225l303 -493l-290 -492h-215l231 404h-967z" />
    <glyph glyph-name="US" 
d="M14 668v184h953l-242 397h225l303 -491l-290 -494h-215l231 404h-965z" />
    </font>
</defs>
</svg>
